<svg width="18" height="20" viewBox="0 0 18 20" fill="none" xmlns="http://www.w3.org/2000/svg">
<path d="M8.57669 20C8.21695 20 7.94094 19.8553 7.74867 19.566C7.5626 19.2829 7.46956 18.8766 7.46956 18.3472V10.4709C7.46956 10.1323 7.50368 9.84611 7.5719 9.61219C7.64633 9.37827 7.76728 9.17205 7.93474 8.99354C8.10841 8.81502 8.3379 8.64266 8.62321 8.47645L15.5078 4.5337C15.942 4.28747 16.3204 4.16436 16.6429 4.16436C16.9902 4.16436 17.26 4.30594 17.4523 4.5891C17.6508 4.87227 17.75 5.28778 17.75 5.83564V13.7211C17.75 14.0597 17.7128 14.346 17.6384 14.5799C17.5701 14.8138 17.4523 15.02 17.2848 15.1985C17.1174 15.377 16.8941 15.5463 16.615 15.7064L9.73963 19.6307C9.28686 19.8769 8.89921 20 8.57669 20ZM9.10699 18.1256C9.1318 18.1317 9.15971 18.1287 9.19072 18.1163L15.759 14.3306C16.0133 14.1828 16.1405 13.9674 16.1405 13.6842L16.1684 6.13112C16.1684 6.06956 16.1498 6.0357 16.1126 6.02955C16.0816 6.02339 16.0505 6.02955 16.0195 6.04801L9.48844 9.8615C9.23414 10.0031 9.10699 10.2185 9.10699 10.5078L9.04187 18.0332C9.04187 18.0886 9.06357 18.1194 9.10699 18.1256ZM4.79014 17.8578C4.49863 17.8578 4.25673 17.7316 4.06446 17.4792C3.87839 17.2268 3.78535 16.8944 3.78535 16.482V8.19021C3.78535 7.83934 3.80706 7.57156 3.85048 7.38689C3.8939 7.19606 3.98693 7.03601 4.12959 6.90674C4.27224 6.77131 4.49552 6.61742 4.79944 6.44506L12.1213 2.26223C12.4067 2.10834 12.6765 2.03139 12.9308 2.03139C13.2099 2.03139 13.4393 2.12373 13.6192 2.3084C13.7991 2.48692 13.8828 2.73315 13.8704 3.04709L5.77632 7.68236C5.65847 7.75008 5.56854 7.81471 5.50651 7.87627C5.44449 7.93167 5.40107 7.99938 5.37626 8.07941C5.35765 8.15943 5.34835 8.27024 5.34835 8.41182V17.6824C5.16848 17.7993 4.98241 17.8578 4.79014 17.8578ZM1.25478 15.8356C0.957071 15.8356 0.715178 15.7094 0.529107 15.4571C0.343036 15.1985 0.25 14.863 0.25 14.4506V6.16805C0.25 5.81717 0.271708 5.54632 0.315125 5.35549C0.358541 5.16467 0.451577 5.00462 0.594232 4.87535C0.743089 4.74608 0.969475 4.59526 1.27339 4.4229L8.58599 0.249307C8.8589 0.0831025 9.1318 0 9.4047 0C9.67761 0 9.90089 0.0923362 10.0746 0.277008C10.2544 0.455525 10.3444 0.701754 10.3444 1.0157L2.24096 5.65097C2.12312 5.71868 2.03318 5.78332 1.97116 5.84487C1.90913 5.90028 1.86572 5.97107 1.84091 6.05725C1.8223 6.14343 1.813 6.25115 1.813 6.38042V15.6602C1.62693 15.7772 1.44086 15.8356 1.25478 15.8356Z" fill="#383B45"/>
</svg>
