
<svg width="20" height="20" viewBox="0 0 20 20" fill="none" xmlns="http://www.w3.org/2000/svg">
<g id="AI-Module-2" clip-path="url(#clip0_905_66837)">
<rect width="20" height="20" fill="white" fill-opacity="0.01"/>
<g id="fill">
<path d="M5.5 0C5.77614 0 6 0.223858 6 0.5C6 0.776143 5.77614 1 5.5 1C5.22386 1 5 0.776143 5 0.5C5 0.223858 5.22386 0 5.5 0Z" fill="#090A0B"/>
<path d="M7.33333 0C7.60948 0 7.83333 0.223858 7.83333 0.5C7.83333 0.776143 7.60948 1 7.33333 1C7.05719 1 6.83333 0.776143 6.83333 0.5C6.83333 0.223858 7.05719 0 7.33333 0Z" fill="#090A0B"/>
<path d="M9.16667 0C9.44281 0 9.66667 0.223858 9.66667 0.5C9.66667 0.776143 9.44281 1 9.16667 1C8.89052 1 8.66667 0.776143 8.66667 0.5C8.66667 0.223858 8.89052 0 9.16667 0Z" fill="#090A0B"/>
<path d="M11 0C11.2761 0 11.5 0.223858 11.5 0.5C11.5 0.776143 11.2761 1 11 1C10.7239 1 10.5 0.776143 10.5 0.5C10.5 0.223858 10.7239 0 11 0Z" fill="#090A0B"/>
<path d="M12.8333 0C13.1095 0 13.3333 0.223858 13.3333 0.5C13.3333 0.776143 13.1095 1 12.8333 1C12.5572 1 12.3333 0.776143 12.3333 0.5C12.3333 0.223858 12.5572 0 12.8333 0Z" fill="#090A0B"/>
<path d="M14.6667 0C14.9428 0 15.1667 0.223858 15.1667 0.5C15.1667 0.776143 14.9428 1 14.6667 1C14.3905 1 14.1667 0.776143 14.1667 0.5C14.1667 0.223858 14.3905 0 14.6667 0Z" fill="#090A0B"/>
<path fill-rule="evenodd" clip-rule="evenodd" d="M9.32115 6.66667L11.8008 13.3333H10.3422L9.88191 11.9277H7.49664L7.03754 13.3333H5.5835L8.04944 6.66667H9.32115ZM7.84807 10.8516H9.52959L8.68777 8.28068L7.84807 10.8516Z" fill="#090A0B"/>
<path d="M13.613 13.3333V6.66667H12.2502V13.3333H13.613Z" fill="#090A0B"/>
<path fill-rule="evenodd" clip-rule="evenodd" d="M1.66667 4.16667C1.66667 2.78595 2.78595 1.66667 4.16667 1.66667H15.8333C17.214 1.66667 18.3333 2.78595 18.3333 4.16667V15.8333C18.3333 17.214 17.214 18.3333 15.8333 18.3333H4.16667C2.78595 18.3333 1.66667 17.214 1.66667 15.8333V4.16667ZM4.16667 3H15.8333C16.4777 3 17 3.52233 17 4.16667V15.8333C17 16.4777 16.4777 17 15.8333 17H4.16667C3.52233 17 3 16.4777 3 15.8333V4.16667C3 3.52233 3.52233 3 4.16667 3Z" fill="#090A0B"/>
<path d="M19.9998 5.5C19.9998 5.77614 19.776 6 19.4998 6C19.2237 6 18.9998 5.77614 18.9998 5.5C18.9998 5.22386 19.2237 5 19.4998 5C19.776 5 19.9998 5.22386 19.9998 5.5Z" fill="#090A0B"/>
<path d="M19.9998 7.33333C19.9998 7.60948 19.776 7.83333 19.4998 7.83333C19.2237 7.83333 18.9998 7.60948 18.9998 7.33333C18.9998 7.05719 19.2237 6.83333 19.4998 6.83333C19.776 6.83333 19.9998 7.05719 19.9998 7.33333Z" fill="#090A0B"/>
<path d="M19.9998 9.16667C19.9998 9.44281 19.776 9.66667 19.4998 9.66667C19.2237 9.66667 18.9998 9.44281 18.9998 9.16667C18.9998 8.89052 19.2237 8.66667 19.4998 8.66667C19.776 8.66667 19.9998 8.89052 19.9998 9.16667Z" fill="#090A0B"/>
<path d="M19.9998 11C19.9998 11.2761 19.776 11.5 19.4998 11.5C19.2237 11.5 18.9998 11.2761 18.9998 11C18.9998 10.7239 19.2237 10.5 19.4998 10.5C19.776 10.5 19.9998 10.7239 19.9998 11Z" fill="#090A0B"/>
<path d="M19.9998 12.8333C19.9998 13.1095 19.776 13.3333 19.4998 13.3333C19.2237 13.3333 18.9998 13.1095 18.9998 12.8333C18.9998 12.5572 19.2237 12.3333 19.4998 12.3333C19.776 12.3333 19.9998 12.5572 19.9998 12.8333Z" fill="#090A0B"/>
<path d="M19.9998 14.6667C19.9998 14.9428 19.776 15.1667 19.4998 15.1667C19.2237 15.1667 18.9998 14.9428 18.9998 14.6667C18.9998 14.3905 19.2237 14.1667 19.4998 14.1667C19.776 14.1667 19.9998 14.3905 19.9998 14.6667Z" fill="#090A0B"/>
<path d="M0.5 6C0.776143 6 1 5.77614 1 5.5C1 5.22386 0.776143 5 0.5 5C0.223858 5 0 5.22386 0 5.5C0 5.77614 0.223858 6 0.5 6Z" fill="#090A0B"/>
<path d="M0.5 7.83333C0.776143 7.83333 1 7.60948 1 7.33333C1 7.05719 0.776143 6.83333 0.5 6.83333C0.223858 6.83333 0 7.05719 0 7.33333C0 7.60948 0.223858 7.83333 0.5 7.83333Z" fill="#090A0B"/>
<path d="M0.5 9.66667C0.776143 9.66667 1 9.44281 1 9.16667C1 8.89052 0.776143 8.66667 0.5 8.66667C0.223858 8.66667 0 8.89052 0 9.16667C0 9.44281 0.223858 9.66667 0.5 9.66667Z" fill="#090A0B"/>
<path d="M0.5 11.5C0.776143 11.5 1 11.2761 1 11C1 10.7239 0.776143 10.5 0.5 10.5C0.223858 10.5 0 10.7239 0 11C0 11.2761 0.223858 11.5 0.5 11.5Z" fill="#090A0B"/>
<path d="M0.5 13.3333C0.776143 13.3333 1 13.1095 1 12.8333C1 12.5572 0.776143 12.3333 0.5 12.3333C0.223858 12.3333 0 12.5572 0 12.8333C0 13.1095 0.223858 13.3333 0.5 13.3333Z" fill="#090A0B"/>
<path d="M0.5 15.1667C0.776143 15.1667 1 14.9428 1 14.6667C1 14.3905 0.776143 14.1667 0.5 14.1667C0.223858 14.1667 0 14.3905 0 14.6667C0 14.9428 0.223858 15.1667 0.5 15.1667Z" fill="#090A0B"/>
<path d="M6 19.4998C6 19.2237 5.77614 18.9998 5.5 18.9998C5.22386 18.9998 5 19.2237 5 19.4998C5 19.776 5.22386 19.9998 5.5 19.9998C5.77614 19.9998 6 19.776 6 19.4998Z" fill="#090A0B"/>
<path d="M7.83333 19.4998C7.83333 19.2237 7.60948 18.9998 7.33333 18.9998C7.05719 18.9998 6.83333 19.2237 6.83333 19.4998C6.83333 19.776 7.05719 19.9998 7.33333 19.9998C7.60948 19.9998 7.83333 19.776 7.83333 19.4998Z" fill="#090A0B"/>
<path d="M9.66667 19.4998C9.66667 19.2237 9.44281 18.9998 9.16667 18.9998C8.89052 18.9998 8.66667 19.2237 8.66667 19.4998C8.66667 19.776 8.89052 19.9998 9.16667 19.9998C9.44281 19.9998 9.66667 19.776 9.66667 19.4998Z" fill="#090A0B"/>
<path d="M11.5 19.4998C11.5 19.2237 11.2761 18.9998 11 18.9998C10.7239 18.9998 10.5 19.2237 10.5 19.4998C10.5 19.776 10.7239 19.9998 11 19.9998C11.2761 19.9998 11.5 19.776 11.5 19.4998Z" fill="#090A0B"/>
<path d="M13.3333 19.4998C13.3333 19.2237 13.1095 18.9998 12.8333 18.9998C12.5572 18.9998 12.3333 19.2237 12.3333 19.4998C12.3333 19.776 12.5572 19.9998 12.8333 19.9998C13.1095 19.9998 13.3333 19.776 13.3333 19.4998Z" fill="#090A0B"/>
<path d="M15.1667 19.4998C15.1667 19.2237 14.9428 18.9998 14.6667 18.9998C14.3905 18.9998 14.1667 19.2237 14.1667 19.4998C14.1667 19.776 14.3905 19.9998 14.6667 19.9998C14.9428 19.9998 15.1667 19.776 15.1667 19.4998Z" fill="#090A0B"/>
</g>
</g>
<defs>
<clipPath id="clip0_905_66837">
<rect width="20" height="20" fill="white"/>
</clipPath>
</defs>
</svg>
