<svg width="20" height="20" viewBox="0 0 20 20" fill="none" xmlns="http://www.w3.org/2000/svg">
<path fill-rule="evenodd" clip-rule="evenodd" d="M10.3334 8.16667H9.6667C9.02236 8.16667 8.50003 8.689 8.50003 9.33333V10.1667H7.66672C7.02239 10.1667 6.50005 10.689 6.50005 11.3333V12C6.50005 12.6443 7.02238 13.1667 7.66672 13.1667H8.50003V14C8.50003 14.6443 9.02237 15.1667 9.6667 15.1667H10.3334C10.9777 15.1667 11.5 14.6443 11.5 14V13.1667H12.3334C12.9777 13.1667 13.5001 12.6443 13.5001 12V11.3333C13.5001 10.689 12.9777 10.1667 12.3334 10.1667H11.5V9.33333C11.5 8.689 10.9777 8.16667 10.3334 8.16667ZM9.6667 9.16667C9.57465 9.16667 9.50003 9.24187 9.50003 9.33392V11C9.50003 11.092 9.42541 11.1667 9.33336 11.1667H7.66672C7.57467 11.1667 7.50005 11.2413 7.50005 11.3333V12C7.50005 12.092 7.57525 12.1667 7.6673 12.1667H9.33336C9.42541 12.1667 9.50003 12.2413 9.50003 12.3333V14C9.50003 14.092 9.57465 14.1667 9.6667 14.1667H10.3334C10.4254 14.1667 10.5 14.0915 10.5 13.9994V12.3333C10.5 12.2413 10.5746 12.1667 10.6667 12.1667H12.3334C12.4254 12.1667 12.5001 12.092 12.5001 12V11.3333C12.5001 11.2413 12.4248 11.1667 12.3328 11.1667H10.6667C10.5746 11.1667 10.5 11.092 10.5 11V9.33333C10.5 9.24129 10.4254 9.16667 10.3334 9.16667H9.6667Z" fill="#090A0B"/>
<path fill-rule="evenodd" clip-rule="evenodd" d="M6.86517 1.92932C6.73207 2.06711 6.66228 2.25734 6.65581 2.5H6.50001C5.09988 2.5 4.39981 2.5 3.86503 2.77248C3.39463 3.01217 3.01218 3.39462 2.77249 3.86502C2.50001 4.3998 2.50001 5.09987 2.50001 6.5V16C2.50001 17.4001 2.50001 18.1002 2.77249 18.635C3.01218 19.1054 3.39463 19.4878 3.86503 19.7275C4.39981 20 5.09988 20 6.50001 20H13.5C14.9001 20 15.6002 20 16.135 19.7275C16.6054 19.4878 16.9878 19.1054 17.2275 18.635C17.5 18.1002 17.5 17.4001 17.5 16V6.5C17.5 5.09987 17.5 4.3998 17.2275 3.86502C16.9878 3.39462 16.6054 3.01217 16.135 2.77248C15.6002 2.5 14.9001 2.5 13.5 2.5H13.3355C13.329 2.25734 13.2592 2.06711 13.1261 1.92932C12.9862 1.77868 12.7938 1.70336 12.549 1.70336H11.8232C11.7882 1.23407 11.5958 0.834299 11.2461 0.504056C10.9021 0.168019 10.4853 0 9.99564 0C9.51179 0 9.09497 0.168019 8.7452 0.504056C8.39543 0.834299 8.20305 1.23407 8.16808 1.70336H7.45104C7.20037 1.70336 7.00508 1.77868 6.86517 1.92932ZM6.86517 4.42304C7.00508 4.56788 7.20037 4.64031 7.45104 4.64031H12.549C12.7938 4.64031 12.9862 4.56788 13.1261 4.42304C13.2627 4.28167 13.3326 4.0851 13.3358 3.83333H13.5C14.2221 3.83333 14.6834 3.83437 15.0334 3.86297C15.3679 3.89029 15.4816 3.93598 15.5297 3.96049C15.7492 4.07234 15.9277 4.25082 16.0395 4.47034C16.064 4.51844 16.1097 4.63215 16.137 4.96658C16.1656 5.31657 16.1667 5.77793 16.1667 6.5V16C16.1667 16.7221 16.1656 17.1834 16.137 17.5334C16.1097 17.8678 16.064 17.9816 16.0395 18.0297C15.9277 18.2492 15.7492 18.4277 15.5297 18.5395C15.4816 18.564 15.3679 18.6097 15.0334 18.637C14.6834 18.6656 14.2221 18.6667 13.5 18.6667H6.50001C5.77794 18.6667 5.31658 18.6656 4.96659 18.637C4.63217 18.6097 4.51845 18.564 4.47035 18.5395C4.25083 18.4277 4.07235 18.2492 3.9605 18.0297C3.93599 17.9816 3.8903 17.8678 3.86298 17.5334C3.83438 17.1834 3.83334 16.7221 3.83334 16V6.5C3.83334 5.77793 3.83438 5.31657 3.86298 4.96658C3.8903 4.63215 3.93599 4.51844 3.9605 4.47034C4.07235 4.25082 4.25083 4.07234 4.47035 3.96049C4.51845 3.93598 4.63217 3.89029 4.96659 3.86297C5.31658 3.83437 5.77794 3.83333 6.50001 3.83333H6.65543C6.6587 4.0851 6.72862 4.28167 6.86517 4.42304ZM10.5116 2.27694C10.3716 2.41599 10.1997 2.48552 9.99564 2.48552C9.7916 2.48552 9.61963 2.41599 9.47972 2.27694C9.33981 2.1321 9.26986 1.96408 9.26986 1.77289C9.26986 1.5701 9.33981 1.39919 9.47972 1.26014C9.61963 1.1153 9.7916 1.04287 9.99564 1.04287C10.1997 1.04287 10.3716 1.1153 10.5116 1.26014C10.6515 1.39919 10.7214 1.5701 10.7214 1.77289C10.7214 1.96408 10.6515 2.1321 10.5116 2.27694Z" fill="#090A0B"/>
<path d="M1.33334 6.83333C1.60949 6.83333 1.83334 6.60948 1.83334 6.33333C1.83334 6.05719 1.60949 5.83333 1.33334 5.83333C1.0572 5.83333 0.833344 6.05719 0.833344 6.33333C0.833344 6.60948 1.0572 6.83333 1.33334 6.83333Z" fill="#090A0B"/>
<path d="M1.33334 8.66667C1.60949 8.66667 1.83334 8.44281 1.83334 8.16667C1.83334 7.89052 1.60949 7.66667 1.33334 7.66667C1.0572 7.66667 0.833344 7.89052 0.833344 8.16667C0.833344 8.44281 1.0572 8.66667 1.33334 8.66667Z" fill="#090A0B"/>
<path d="M1.83334 10C1.83334 10.2761 1.60949 10.5 1.33334 10.5C1.0572 10.5 0.833344 10.2761 0.833344 10C0.833344 9.72386 1.0572 9.5 1.33334 9.5C1.60949 9.5 1.83334 9.72386 1.83334 10Z" fill="#090A0B"/>
<path d="M1.33334 12.3333C1.60949 12.3333 1.83334 12.1095 1.83334 11.8333C1.83334 11.5572 1.60949 11.3333 1.33334 11.3333C1.0572 11.3333 0.833344 11.5572 0.833344 11.8333C0.833344 12.1095 1.0572 12.3333 1.33334 12.3333Z" fill="#090A0B"/>
<path d="M1.83334 13.6667C1.83334 13.9428 1.60949 14.1667 1.33334 14.1667C1.0572 14.1667 0.833344 13.9428 0.833344 13.6667C0.833344 13.3905 1.0572 13.1667 1.33334 13.1667C1.60949 13.1667 1.83334 13.3905 1.83334 13.6667Z" fill="#090A0B"/>
<path d="M1.33334 16C1.60949 16 1.83334 15.7761 1.83334 15.5C1.83334 15.2239 1.60949 15 1.33334 15C1.0572 15 0.833344 15.2239 0.833344 15.5C0.833344 15.7761 1.0572 16 1.33334 16Z" fill="#090A0B"/>
<path d="M19.1667 6.33333C19.1667 6.60948 18.9429 6.83333 18.6667 6.83333C18.3906 6.83333 18.1667 6.60948 18.1667 6.33333C18.1667 6.05719 18.3906 5.83333 18.6667 5.83333C18.9429 5.83333 19.1667 6.05719 19.1667 6.33333Z" fill="#090A0B"/>
<path d="M19.1667 8.16667C19.1667 8.44281 18.9429 8.66667 18.6667 8.66667C18.3906 8.66667 18.1667 8.44281 18.1667 8.16667C18.1667 7.89052 18.3906 7.66667 18.6667 7.66667C18.9429 7.66667 19.1667 7.89052 19.1667 8.16667Z" fill="#090A0B"/>
<path d="M18.6667 10.5C18.9429 10.5 19.1667 10.2761 19.1667 10C19.1667 9.72386 18.9429 9.5 18.6667 9.5C18.3906 9.5 18.1667 9.72386 18.1667 10C18.1667 10.2761 18.3906 10.5 18.6667 10.5Z" fill="#090A0B"/>
<path d="M19.1667 11.8333C19.1667 12.1095 18.9429 12.3333 18.6667 12.3333C18.3906 12.3333 18.1667 12.1095 18.1667 11.8333C18.1667 11.5572 18.3906 11.3333 18.6667 11.3333C18.9429 11.3333 19.1667 11.5572 19.1667 11.8333Z" fill="#090A0B"/>
<path d="M18.6667 14.1667C18.9429 14.1667 19.1667 13.9428 19.1667 13.6667C19.1667 13.3905 18.9429 13.1667 18.6667 13.1667C18.3906 13.1667 18.1667 13.3905 18.1667 13.6667C18.1667 13.9428 18.3906 14.1667 18.6667 14.1667Z" fill="#090A0B"/>
<path d="M19.1667 15.5C19.1667 15.7761 18.9429 16 18.6667 16C18.3906 16 18.1667 15.7761 18.1667 15.5C18.1667 15.2239 18.3906 15 18.6667 15C18.9429 15 19.1667 15.2239 19.1667 15.5Z" fill="#090A0B"/>
</svg>
