<svg width="14" height="15" viewBox="0 0 14 15" fill="none" xmlns="http://www.w3.org/2000/svg">
<g id="Exclamationmark" clip-path="url(#clip0_403_48573)">
<rect width="14" height="14" transform="translate(0 0.84375)" fill="none" fillOpacity="0.01"/>
<path id="fill" d="M7.00004 14.2603C7.87971 14.2603 8.70579 14.0929 9.47829 13.758C10.2508 13.4231 10.9318 12.9609 11.5212 12.3715C12.1151 11.7821 12.5795 11.1011 12.9144 10.3286C13.2493 9.55165 13.4167 8.72334 13.4167 7.84367C13.4167 6.96847 13.247 6.14461 12.9077 5.37211C12.5728 4.59515 12.1084 3.91195 11.5145 3.32253C10.9251 2.72864 10.2441 2.26425 9.4716 1.92935C8.6991 1.59445 7.87301 1.427 6.99334 1.427C6.11814 1.427 5.29429 1.59445 4.52179 1.92935C3.74929 2.26425 3.06609 2.72864 2.47221 3.32253C1.88278 3.91195 1.42062 4.59515 1.08572 5.37211C0.750824 6.14461 0.583374 6.96847 0.583374 7.84367C0.583374 8.72334 0.750824 9.55165 1.08572 10.3286C1.42509 11.1011 1.88948 11.7821 2.4789 12.3715C3.06833 12.9609 3.74929 13.4231 4.52179 13.758C5.29429 14.0929 6.12037 14.2603 7.00004 14.2603ZM7.00004 9.01582C6.68747 9.01582 6.52895 8.85506 6.52448 8.53356L6.44411 5.0841C6.43964 4.93228 6.48876 4.80725 6.59146 4.70901C6.69417 4.60631 6.82813 4.55496 6.99334 4.55496C7.15409 4.55496 7.28582 4.60631 7.38852 4.70901C7.49123 4.81172 7.54258 4.93898 7.54258 5.0908L7.4555 8.53356C7.4555 8.85506 7.30368 9.01582 7.00004 9.01582ZM7.00004 11.0922C6.81696 11.0922 6.65844 11.0297 6.52448 10.9046C6.39499 10.7796 6.33024 10.63 6.33024 10.4559C6.33024 10.2773 6.39499 10.1254 6.52448 10.0004C6.65844 9.87092 6.81696 9.80618 7.00004 9.80618C7.17865 9.80618 7.33271 9.86869 7.4622 9.99372C7.59616 10.1188 7.66314 10.2728 7.66314 10.4559C7.66314 10.6345 7.59616 10.7863 7.4622 10.9113C7.32824 11.0319 7.17419 11.0922 7.00004 11.0922Z" fill="#E01839"/>
</g>
<defs>
<clipPath id="clip0_403_48573">
<rect width="14" height="14" fill="white" transform="translate(0 0.84375)"/>
</clipPath>
</defs>
</svg>
