<svg width="20" height="20" viewBox="0 0 20 20" fill="none" xmlns="http://www.w3.org/2000/svg">
<path d="M9.83385 11.3606C9.40704 11.3606 9.05164 11.0103 9.11067 10.5876C9.12642 10.4747 9.14573 10.3696 9.16857 10.2722C9.23729 9.97447 9.35182 9.70469 9.51216 9.46282C9.67708 9.22094 9.89469 8.96512 10.165 8.69533C10.3757 8.49067 10.5658 8.29764 10.7353 8.11623C10.9048 7.93018 11.04 7.73482 11.1408 7.53016C11.2416 7.32084 11.2919 7.0813 11.2919 6.81151C11.2919 6.51847 11.2438 6.26963 11.1476 6.06496C11.0514 5.8603 10.9094 5.70448 10.7216 5.5975C10.5383 5.49051 10.3093 5.43702 10.0344 5.43702C9.80536 5.43702 9.59004 5.48354 9.38847 5.57656C9.1869 5.66494 9.02427 5.80448 8.90057 5.99519C8.6613 6.35511 8.35762 6.73477 7.92542 6.73477H7.89166C7.42633 6.73477 7.03304 6.34589 7.16266 5.89898C7.23114 5.66291 7.32942 5.44845 7.4575 5.25562C7.72321 4.8556 8.08054 4.55558 8.5295 4.35557C8.97845 4.15556 9.48009 4.05555 10.0344 4.05555C10.6483 4.05555 11.1728 4.16254 11.6081 4.3765C12.0433 4.58581 12.3754 4.89281 12.6045 5.29748C12.8381 5.6975 12.9549 6.18125 12.9549 6.74872C12.9549 7.15804 12.8747 7.53016 12.7144 7.86506C12.5541 8.19531 12.3456 8.50463 12.0891 8.79301C11.8325 9.07675 11.5554 9.36049 11.2576 9.64422C11.001 9.88144 10.827 10.1396 10.7353 10.4187C10.7147 10.4805 10.6962 10.5444 10.68 10.6103C10.5796 11.0179 10.2536 11.3606 9.83385 11.3606Z" fill="#383B45"/>
<path d="M8.92119 13.5375C8.92119 13.2863 9.00594 13.0746 9.17544 12.9025C9.34495 12.7258 9.5763 12.6374 9.86949 12.6374C10.1627 12.6374 10.394 12.7258 10.5635 12.9025C10.733 13.0746 10.8178 13.2863 10.8178 13.5375C10.8178 13.7886 10.733 14.0026 10.5635 14.1793C10.394 14.3514 10.1627 14.4375 9.86949 14.4375C9.5763 14.4375 9.34495 14.3514 9.17544 14.1793C9.00594 14.0026 8.92119 13.7886 8.92119 13.5375Z" fill="#383B45"/>
<path fill-rule="evenodd" clip-rule="evenodd" d="M15.337 16.8621C14.5222 16.8621 13.7482 17.1721 13.1778 17.7322L11.4361 19.4224C10.6416 20.1925 9.34817 20.1925 8.55373 19.4224L6.81204 17.7322C6.24167 17.1721 5.45742 16.8621 4.65279 16.8621H3.8889C2.19816 16.8621 0.833344 15.5319 0.833344 13.8917V2.97037C0.833344 1.33017 2.19816 0 3.8889 0H16.1111C17.8019 0 19.1667 1.33017 19.1667 2.97037V13.8817C19.1667 15.5219 17.8019 16.8621 16.1111 16.8621H15.337ZM16.1111 15.5288H15.337C14.1851 15.5288 13.0737 15.9674 12.2467 16.7778L12.2436 16.7809L10.5081 18.4651C10.2309 18.7332 9.75949 18.7337 9.48229 18.4656L7.74622 16.7809L7.74304 16.7777C6.91438 15.9657 5.79214 15.5288 4.65279 15.5288H3.8889C2.89976 15.5288 2.16668 14.7613 2.16668 13.8917V2.97037C2.16668 2.10085 2.89976 1.33333 3.8889 1.33333H16.1111C17.1003 1.33333 17.8333 2.10085 17.8333 2.97037V13.8817C17.8333 14.757 17.0944 15.5288 16.1111 15.5288Z" fill="#383B45"/>
</svg>
