<svg xmlns="http://www.w3.org/2000/svg" width="24" height="24" viewBox="0 0 24 24" fill="none">
  <path d="M11.235 2.37475C10.867 2.52675 10.538 2.85675 9.87898 3.51475C9.21998 4.17475 8.88998 4.50375 8.73898 4.87075C8.63843 5.11343 8.58668 5.37355 8.58668 5.63625C8.58668 5.89894 8.63843 6.15906 8.73898 6.40175C8.88998 6.76975 9.21898 7.09875 9.87898 7.75775C10.537 8.41675 10.867 8.74675 11.235 8.89775C11.7248 9.10053 12.2751 9.10053 12.765 8.89775C13.133 8.74675 13.462 8.41775 14.121 7.75775C14.781 7.09875 15.109 6.76975 15.261 6.40175C15.4638 5.9119 15.4638 5.36159 15.261 4.87175C15.109 4.50375 14.781 4.17475 14.121 3.51575C13.462 2.85575 13.133 2.52675 12.765 2.37475C12.2751 2.17196 11.7248 2.17196 11.235 2.37475ZM4.86998 8.73875C4.50298 8.89075 4.17298 9.21975 3.51498 9.87875C2.85498 10.5387 2.52598 10.8677 2.37398 11.2347C2.27343 11.4774 2.22168 11.7376 2.22168 12.0002C2.22168 12.2629 2.27343 12.5231 2.37398 12.7657C2.52598 13.1337 2.85598 13.4627 3.51398 14.1217C4.17398 14.7807 4.50298 15.1097 4.86998 15.2617C5.11266 15.3623 5.37278 15.414 5.63548 15.414C5.89817 15.414 6.15829 15.3623 6.40098 15.2617C6.76898 15.1097 7.09798 14.7807 7.75698 14.1217C8.41698 13.4627 8.74498 13.1337 8.89698 12.7657C9.09976 12.2759 9.09976 11.7256 8.89698 11.2357C8.74498 10.8677 8.41698 10.5377 7.75698 9.87875C7.09798 9.21975 6.76898 8.89075 6.40098 8.73875C5.91113 8.53596 5.35982 8.53596 4.86998 8.73875ZM16.243 9.87875C15.584 10.5387 15.255 10.8677 15.103 11.2347C15.0024 11.4774 14.9507 11.7376 14.9507 12.0002C14.9507 12.2629 15.0024 12.5231 15.103 12.7657C15.255 13.1337 15.584 13.4627 16.243 14.1217C16.902 14.7807 17.232 15.1097 17.599 15.2617C18.0888 15.4645 18.6391 15.4645 19.129 15.2617C19.497 15.1097 19.827 14.7807 20.486 14.1217C21.145 13.4627 21.473 13.1337 21.626 12.7657C21.8288 12.2759 21.8288 11.7256 21.626 11.2357C21.473 10.8677 21.145 10.5377 20.486 9.87875C19.826 9.21975 19.497 8.89075 19.13 8.73875C18.8873 8.6382 18.6272 8.58645 18.3645 8.58645C18.1018 8.58645 17.8417 8.6382 17.599 8.73875C17.232 8.89075 16.902 9.21975 16.243 9.87875ZM11.235 15.1027C10.867 15.2547 10.538 15.5847 9.87898 16.2427C9.21998 16.9027 8.88998 17.2317 8.73898 17.5997C8.53619 18.0896 8.53619 18.6399 8.73898 19.1297C8.88998 19.4977 9.21898 19.8267 9.87898 20.4857C10.537 21.1447 10.867 21.4747 11.235 21.6257C11.7248 21.8285 12.2751 21.8285 12.765 21.6257C13.133 21.4747 13.462 21.1457 14.121 20.4857C14.781 19.8267 15.109 19.4977 15.261 19.1297C15.464 18.6397 15.464 18.0897 15.261 17.5997C15.109 17.2317 14.781 16.9017 14.121 16.2437C13.462 15.5837 13.133 15.2547 12.765 15.1027C12.2751 14.9 11.7248 14.9 11.235 15.1027Z" stroke="black" stroke-width="2" stroke-linecap="round" stroke-linejoin="round"/>
</svg>