<svg width="26" height="26" viewBox="0 0 26 26" fill="none" xmlns="http://www.w3.org/2000/svg">
<g id="&#240;&#159;&#166;&#134; icon &#34;bell&#34;">
<path id="Vector" d="M21 8.68241C21 6.64516 20.1572 4.69137 18.6568 3.25082C17.1565 1.81026 15.1217 1.00098 13 1.00098C10.8783 1.00098 8.84344 1.81026 7.34315 3.25082C5.84285 4.69137 5 6.64516 5 8.68241C5 17.6441 1 20.2046 1 20.2046H25C25 20.2046 21 17.6441 21 8.68241Z" stroke="black" stroke-width="2" stroke-linecap="round" stroke-linejoin="round"/>
<path id="Vector_2" d="M15.3057 23.8047C15.0713 24.1685 14.7349 24.4705 14.33 24.6803C13.9252 24.8902 13.4662 25.0007 12.999 25.0007C12.5318 25.0007 12.0729 24.8902 11.6681 24.6803C11.2633 24.4705 10.9268 24.1685 10.6924 23.8047" stroke="black" stroke-width="2" stroke-linecap="round" stroke-linejoin="round"/>
</g>
</svg>
