


<svg width="20" height="20" viewBox="0 0 20 20" fill="none" xmlns="http://www.w3.org/2000/svg">
<g id="Order-management" clip-path="url(#clip0_905_66991)">
<rect width="20" height="20" fill="white" fill-opacity="0.01"/>
<path id="fill" d="M18.9902 5.26023C19.1728 5.57649 19.1857 5.89256 19.0289 6.20845C18.8744 6.51576 18.5645 6.80376 18.0991 7.07247L11.1747 11.0702C10.8771 11.2421 10.6081 11.3574 10.3679 11.4161C10.1244 11.4694 9.88176 11.4678 9.63982 11.4111C9.39473 11.3491 9.12672 11.2348 8.83579 11.0683L1.87514 7.01703C1.4383 6.76032 1.13802 6.49019 0.974321 6.20665C0.798025 5.90129 0.785551 5.59224 0.936899 5.27948C1.0851 4.96126 1.40002 4.66312 1.88167 4.38504L8.8141 0.382592C9.11175 0.210747 9.38229 0.0981748 9.62571 0.0448777C9.86599 -0.013872 10.1071 -0.0149394 10.349 0.0416749C10.591 0.0982892 10.8531 0.208665 11.1355 0.372802L18.0752 4.42531C18.5215 4.69838 18.8265 4.97669 18.9902 5.26023ZM17.0731 5.74543C17.066 5.72049 17.0491 5.69752 17.0225 5.6765L10.3604 1.8236C10.1015 1.67502 9.84752 1.6726 9.59858 1.81633L2.9442 5.62551C2.89009 5.65676 2.86977 5.6903 2.88324 5.72614C2.89357 5.75653 2.91473 5.78067 2.9467 5.79856L9.61427 9.60468C9.86781 9.75638 10.1218 9.75881 10.3761 9.61196L17.025 5.84955C17.0737 5.82143 17.0898 5.78672 17.0731 5.74543ZM19.0288 9.67645C19.1768 9.93272 19.1886 10.2094 19.0643 10.5066C18.9369 10.7983 18.6919 11.0488 18.3293 11.2581L11.0397 15.4668C10.7312 15.6449 10.4848 15.7617 10.3004 15.8173C10.1106 15.8759 9.92268 15.8754 9.73662 15.8156C9.54516 15.7589 9.29653 15.6407 8.99074 15.461L1.59709 11.1472C1.31698 10.9744 1.11239 10.7763 0.983316 10.5527C0.84165 10.3074 0.806344 10.0587 0.8774 9.80688C0.943045 9.55815 1.11701 9.35955 1.39931 9.21111L9.58267 13.9742C9.70202 14.0434 9.80449 14.0897 9.89009 14.113C9.97027 14.1394 10.0518 14.1432 10.1348 14.1244C10.2146 14.1001 10.3167 14.0521 10.4412 13.9802L18.5913 9.27475C18.7854 9.37351 18.9312 9.50741 19.0288 9.67645ZM19.0455 13.8109C19.1966 14.0726 19.2085 14.3493 19.081 14.641C18.9482 14.9358 18.7005 15.1879 18.3379 15.3972L11.0564 19.6012C10.7479 19.7793 10.4988 19.8977 10.309 19.9564C10.1192 20.0151 9.93124 20.0145 9.74519 19.9547C9.55599 19.8895 9.30849 19.767 9.0027 19.5873L1.62189 15.2769C1.33725 15.1214 1.12568 14.9236 0.987159 14.6837C0.84864 14.4438 0.816484 14.2006 0.890688 13.9542C0.956333 13.7055 1.12715 13.5014 1.40315 13.3421L9.59124 18.1133C9.71058 18.1826 9.81305 18.2288 9.89865 18.2521C9.97884 18.2785 10.0631 18.2808 10.1515 18.2588C10.2367 18.2314 10.3361 18.1849 10.4498 18.1193L18.6079 13.4092C18.8052 13.5134 18.9511 13.6473 19.0455 13.8109Z" fill="white"/>
</g>
<defs>
<clipPath id="clip0_905_66991">
<rect width="20" height="20" fill="white"/>
</clipPath>
</defs>
</svg>
