<svg width="26" height="26" viewBox="0 0 26 26" fill="none" xmlns="http://www.w3.org/2000/svg">
<g id="&#240;&#159;&#166;&#134; icon &#34;media video list&#34;">
<path id="Vector" d="M25.0001 6.08339V24.154C25.0001 24.6218 24.6209 25.001 24.153 25.001H6.08241C5.61459 25.001 5.23535 24.6218 5.23535 24.154V6.08339C5.23535 5.61557 5.61459 5.23633 6.08241 5.23633H24.153C24.6209 5.23633 25.0001 5.61557 25.0001 6.08339Z" stroke="black" stroke-width="2" stroke-linecap="round" stroke-linejoin="round"/>
<path id="Vector_2" d="M20.7647 1.00098H1.84706C1.37924 1.00098 1 1.38022 1 1.84804V20.7657" stroke="black" stroke-width="2" stroke-linecap="round" stroke-linejoin="round"/>
<path id="Vector_3" d="M13.5768 11.6532C13.0123 11.3146 12.2939 11.7212 12.2939 12.3796V17.8581C12.2939 18.5165 13.0123 18.9231 13.5768 18.5844L18.1422 15.8452C18.6905 15.5163 18.6905 14.7214 18.1422 14.3925L13.5768 11.6532Z" stroke="black" stroke-width="2" stroke-linecap="round" stroke-linejoin="round"/>
</g>
</svg>
