<svg width="20" height="13" viewBox="0 0 20 13" fill="none" xmlns="http://www.w3.org/2000/svg">
<path d="M10.0039 12.8438C10.9864 12.8438 11.9142 12.7297 12.7875 12.5017C13.666 12.2737 14.4743 11.9739 15.2125 11.6021C15.9558 11.2304 16.6238 10.8214 17.2164 10.3753C17.809 9.9243 18.3106 9.47324 18.7212 9.02219C19.1371 8.57114 19.4542 8.15478 19.6725 7.77312C19.8908 7.3865 20 7.07423 20 6.83632C20 6.60335 19.8908 6.29604 19.6725 5.91438C19.4542 5.52777 19.1345 5.10893 18.7134 4.65788C18.2976 4.20187 17.796 3.75081 17.2086 3.30472C16.6212 2.85366 15.9558 2.44474 15.2125 2.07795C14.4691 1.7062 13.6608 1.40881 12.7875 1.18576C11.9142 0.957752 10.9864 0.84375 10.0039 0.84375C9.03184 0.84375 8.11176 0.957752 7.24366 1.18576C6.37557 1.40881 5.56985 1.7062 4.82651 2.07795C4.08317 2.44474 3.4152 2.85366 2.82261 3.30472C2.23002 3.75081 1.7232 4.20187 1.30214 4.65788C0.881092 5.10893 0.558804 5.52777 0.335283 5.91438C0.111761 6.29604 0 6.60335 0 6.83632C0 7.07423 0.109162 7.3865 0.327485 7.77312C0.551007 8.15478 0.870695 8.57114 1.28655 9.02219C1.7076 9.47324 2.21442 9.9243 2.80702 10.3753C3.40481 10.8214 4.07537 11.2304 4.81871 11.6021C5.56205 11.9739 6.36777 12.2737 7.23587 12.5017C8.10916 12.7297 9.03184 12.8438 10.0039 12.8438ZM10.0039 11.8177C9.18259 11.8177 8.39506 11.7211 7.64133 11.5278C6.89279 11.3295 6.18843 11.0718 5.52826 10.7545C4.87329 10.4324 4.2781 10.0829 3.74269 9.7062C3.21248 9.32454 2.75504 8.94784 2.37037 8.57609C1.9857 8.19939 1.69201 7.85738 1.48928 7.55007C1.28655 7.24276 1.18519 7.00484 1.18519 6.83632C1.18519 6.69257 1.28655 6.472 1.48928 6.17461C1.69201 5.87721 1.9857 5.54016 2.37037 5.16345C2.75504 4.78675 3.21248 4.40509 3.74269 4.01847C4.2781 3.63185 4.87329 3.27498 5.52826 2.94784C6.18843 2.6207 6.89279 2.358 7.64133 2.15974C8.39506 1.96147 9.18259 1.86234 10.0039 1.86234C10.82 1.86234 11.6023 1.96147 12.3509 2.15974C13.1046 2.358 13.809 2.6207 14.4639 2.94784C15.1189 3.27498 15.7141 3.63185 16.2495 4.01847C16.7849 4.40509 17.2424 4.78675 17.6218 5.16345C18.0065 5.54016 18.3028 5.87721 18.5107 6.17461C18.7186 6.472 18.8226 6.69257 18.8226 6.83632C18.8226 7.00484 18.7186 7.24276 18.5107 7.55007C18.3028 7.85738 18.0065 8.19939 17.6218 8.57609C17.2424 8.94784 16.7849 9.32454 16.2495 9.7062C15.7141 10.0829 15.1189 10.4324 14.4639 10.7545C13.809 11.0718 13.1046 11.3295 12.3509 11.5278C11.6023 11.7211 10.82 11.8177 10.0039 11.8177ZM10.0039 10.7768C10.5757 10.7768 11.1111 10.6727 11.6101 10.4646C12.1092 10.2564 12.5484 9.97138 12.9279 9.60955C13.3073 9.24772 13.6036 8.82888 13.8168 8.35304C14.0351 7.87721 14.1442 7.37163 14.1442 6.83632C14.1442 6.10769 13.9571 5.44598 13.5828 4.85119C13.2086 4.25639 12.7096 3.78551 12.0858 3.43855C11.462 3.08662 10.768 2.91066 10.0039 2.91066C9.23457 2.91066 8.53541 3.08662 7.90643 3.43855C7.28265 3.78551 6.78363 4.25639 6.40936 4.85119C6.04029 5.44598 5.85835 6.10769 5.86355 6.83632C5.86875 7.55007 6.05588 8.20682 6.42495 8.80658C6.79402 9.40137 7.29045 9.87969 7.91423 10.2415C8.53801 10.5984 9.23457 10.7768 10.0039 10.7768ZM10.0039 8.12256C9.62443 8.12256 9.30214 7.99617 9.03704 7.74338C8.77193 7.49059 8.63938 7.18824 8.63938 6.83632C8.63938 6.47944 8.77193 6.17708 9.03704 5.92925C9.30214 5.67646 9.62443 5.55007 10.0039 5.55007C10.3782 5.55007 10.6979 5.67646 10.963 5.92925C11.2281 6.17708 11.3606 6.47944 11.3606 6.83632C11.3606 7.18824 11.2281 7.49059 10.963 7.74338C10.6979 7.99617 10.3782 8.12256 10.0039 8.12256Z" fill="#626576"/>
</svg>
