<svg width="20" height="14" viewBox="0 0 20 14" fill="none" xmlns="http://www.w3.org/2000/svg">
<path d="M10.0039 13.1091C10.7005 13.1091 11.3632 13.0511 11.9922 12.9353C12.6212 12.8194 13.2268 12.6607 13.809 12.4591L12.9201 11.6051C12.4678 11.7461 12 11.8595 11.5166 11.9452C11.0331 12.0258 10.5289 12.0661 10.0039 12.0661C9.18259 12.0661 8.39506 11.9678 7.64133 11.7713C6.89279 11.5698 6.18843 11.3078 5.52826 10.9853C4.87329 10.6578 4.2781 10.3026 3.74269 9.91965C3.21248 9.53167 2.75504 9.14874 2.37037 8.77084C1.9857 8.38791 1.69201 8.04024 1.48928 7.72785C1.28655 7.41545 1.18519 7.1736 1.18519 7.00229C1.18519 6.83097 1.32814 6.54881 1.61404 6.1558C1.90513 5.75775 2.31839 5.32191 2.8538 4.84828C3.38921 4.36961 4.02599 3.91613 4.76413 3.48785L3.92982 2.67915C3.10331 3.17294 2.39636 3.69947 1.80897 4.25876C1.22677 4.81804 0.779727 5.34458 0.467836 5.83837C0.155945 6.32711 0 6.71509 0 7.00229C0 7.24414 0.109162 7.56157 0.327485 7.95459C0.551007 8.34256 0.870695 8.7658 1.28655 9.22432C1.7076 9.68283 2.21442 10.1413 2.80702 10.5999C3.40481 11.0533 4.07537 11.469 4.81871 11.8469C5.56205 12.2248 6.36777 12.5297 7.23587 12.7614C8.10916 12.9932 9.03184 13.1091 10.0039 13.1091ZM10.0039 0.910595C9.34373 0.910595 8.71995 0.9635 8.13255 1.06931C7.54516 1.17512 6.97596 1.32124 6.42495 1.50767L7.30604 2.36172C7.73229 2.23071 8.16634 2.12994 8.60819 2.0594C9.05003 1.98382 9.51527 1.94603 10.0039 1.94603C10.82 1.94603 11.6049 2.0468 12.3587 2.24835C13.1176 2.44989 13.8246 2.71694 14.4795 3.04949C15.1345 3.38204 15.7271 3.74482 16.2573 4.13783C16.7927 4.53084 17.2502 4.91882 17.6296 5.30175C18.0143 5.68469 18.308 6.02731 18.5107 6.32963C18.7186 6.63195 18.8226 6.85617 18.8226 7.00229C18.8226 7.20383 18.6849 7.49859 18.4094 7.88656C18.1339 8.2695 17.7414 8.69022 17.232 9.14874C16.7225 9.60221 16.1196 10.0381 15.423 10.4563L16.2495 11.2574C17.0344 10.7687 17.705 10.2497 18.2612 9.70047C18.8226 9.15126 19.2515 8.6348 19.5478 8.15109C19.8493 7.66738 20 7.28445 20 7.00229C20 6.76547 19.8908 6.45308 19.6725 6.0651C19.4542 5.67209 19.1371 5.24633 18.7212 4.78781C18.3106 4.32426 17.809 3.86575 17.2164 3.41227C16.6238 2.95376 15.9558 2.53807 15.2125 2.16521C14.4743 1.78731 13.666 1.485 12.7875 1.25826C11.9142 1.02648 10.9864 0.910595 10.0039 0.910595ZM10.0039 11.008C10.3418 11.008 10.6667 10.9677 10.9786 10.8871C11.2904 10.8064 11.5893 10.6956 11.8752 10.5545L6.32359 5.18083C6.17284 5.44787 6.05848 5.73507 5.98051 6.04243C5.90253 6.34978 5.86355 6.66974 5.86355 7.00229C5.86355 7.72785 6.04808 8.39546 6.41715 9.00514C6.79142 9.60977 7.29045 10.096 7.91423 10.4638C8.53801 10.8266 9.23457 11.008 10.0039 11.008ZM13.7388 8.65747C13.8687 8.40554 13.9675 8.14101 14.0351 7.86389C14.1079 7.58677 14.1442 7.29956 14.1442 7.00229C14.1442 6.26161 13.9571 5.58895 13.5828 4.98432C13.2086 4.37968 12.7096 3.90102 12.0858 3.54831C11.462 3.19057 10.768 3.0117 10.0039 3.0117C9.69721 3.0117 9.40091 3.04445 9.11501 3.10995C8.82911 3.17042 8.5562 3.26111 8.2963 3.38204L13.7388 8.65747ZM15.7973 13.1998C15.9012 13.2955 16.0208 13.3434 16.1559 13.3434C16.2963 13.3484 16.4185 13.3006 16.5224 13.1998C16.6316 13.0889 16.6836 12.968 16.6784 12.837C16.6784 12.706 16.6264 12.5901 16.5224 12.4893L4.14815 0.494909C4.04418 0.394136 3.91943 0.34375 3.77388 0.34375C3.62833 0.34375 3.50617 0.394136 3.40741 0.494909C3.30864 0.585604 3.25926 0.701492 3.25926 0.842573C3.25926 0.983655 3.30864 1.10206 3.40741 1.1978L15.7973 13.1998Z" fill="#626576"/>
</svg>
