<svg width="430" height="124" viewBox="0 0 430 124" fill="none" xmlns="http://www.w3.org/2000/svg">
<path d="M216.9 65.6799H199.84V75.92H213.27V106.52H138.18C132.08 106.52 129.79 102.2 129.79 96.92V75.92H143.23V65.6799H126.17V58.2999H216.9V65.6799ZM180.97 17.5599V22.5199C180.97 31.9099 195.74 44.7899 216.14 46.2599V53.7499C197.94 53.2199 180.02 46.8899 171.54 36.5499C163.06 46.8899 145.15 53.2199 126.94 53.7499V46.2599C147.33 44.7799 162.11 31.9099 162.11 22.5199V17.5599H180.97ZM148.28 83.2999V99.1299H194.79V83.2999H148.28ZM161.72 75.9099H181.35V65.67H161.72V75.9099Z" fill="black"/>
<path d="M231.06 101.24V93.8499H237.92V27.0499H232.01V19.6599H281.57V27.0499H276.62V93.8499H282.91V101.24H231.06ZM254.13 93.8499H260.42V27.0499H254.13V93.8499ZM286.82 106.52V63.5699H278.72V56.1799H286.82V28.2199C286.82 22.9399 289.11 18.6099 295.21 18.6099H303.31V106.51H286.82V106.52ZM307.6 106.52V28.2199C307.6 22.9399 309.88 18.6099 315.98 18.6099H324.27V106.51H307.6V106.52Z" fill="black"/>
<path d="M360.23 56.0699H389.11V63.4599H360.23V94.9099H399.5V102.3H350.32C344.22 102.3 341.93 97.9699 341.93 92.6899V19.67H394.35V27.0599H360.23V56.0699ZM410.93 106.52V62.5199H394.35V55.14H410.93V28.2299C410.93 22.9499 413.22 18.6199 419.32 18.6199H429.42V106.52H410.93Z" fill="black"/>
<path fill-rule="evenodd" clip-rule="evenodd" d="M19.07 119.02C22.12 120.15 25.35 121.1 28.71 121.83C57.79 128.13 87 115.99 93.9 94.7C99.44 77.61 88.96 59.85 69.64 50.24C61.45 46.18 54.4 50.3 59.03 56.35C66.43 66.04 70.02 74.85 67.83 85.54C65.38 97.23 56.42 109.13 43.69 115.32C36.81 118.65 27.53 120.8 19.07 119.02Z" fill="url(#paint0_linear_1_4)"/>
<path fill-rule="evenodd" clip-rule="evenodd" d="M43.68 115.34C56.41 109.14 65.37 97.25 67.82 85.56C68.01 84.62 68.16 83.69 68.26 82.77C67.28 87.94 62.5 89.6 55.7 89.68C46.17 89.79 33.33 86.45 26.4 85.84C-0.340004 83.4 -9.79 106.14 14.81 117.32C16.18 117.92 17.61 118.52 19.06 119.05C27.53 120.84 36.8 118.69 43.68 115.34Z" fill="url(#paint1_linear_1_4)"/>
<path fill-rule="evenodd" clip-rule="evenodd" d="M56.2 89.67C63.05 89.52 67.49 87.5899 68.26 82.7599C68.54 80.3399 68.55 78.0199 68.24 75.7499C68.24 75.7399 68.24 75.7299 68.24 75.7199C68.2 75.4599 68.16 75.1999 68.12 74.9299C68.12 74.8999 68.11 74.8699 68.11 74.8399C68.07 74.5899 68.02 74.3399 67.97 74.0899C67.96 74.0499 67.95 74.0099 67.95 73.9699C67.9 73.7299 67.85 73.4899 67.8 73.2499C67.79 73.1999 67.78 73.1599 67.77 73.1099C67.72 72.8699 67.66 72.6399 67.6 72.4099C67.59 72.3599 67.57 72.3099 67.56 72.2599C67.5 72.0299 67.43 71.7899 67.37 71.5599C67.36 71.5099 67.34 71.46 67.33 71.42C67.26 71.19 67.19 70.9499 67.11 70.7199C67.1 70.6799 67.08 70.6399 67.07 70.5999C66.99 70.3599 66.91 70.1199 66.83 69.8799C66.82 69.8599 66.81 69.8399 66.81 69.8099C66.34 68.4899 65.78 67.1899 65.14 65.8799C65.12 65.8399 65.1 65.7999 65.08 65.7599C64.98 65.5599 64.88 65.3599 64.77 65.1599C64.73 65.0799 64.69 64.9899 64.64 64.9099C64.54 64.7299 64.45 64.5499 64.35 64.3699C64.29 64.2699 64.24 64.1699 64.18 64.0599C64.09 63.8899 63.99 63.7199 63.89 63.5499C63.82 63.4399 63.76 63.3199 63.69 63.2099C63.6 63.0499 63.5 62.8899 63.4 62.7299C63.33 62.6099 63.25 62.4899 63.18 62.3599C63.09 62.2099 62.99 62.0499 62.89 61.8999C62.81 61.7699 62.73 61.6399 62.65 61.5099C62.56 61.3599 62.46 61.2099 62.36 61.0599C62.27 60.9199 62.18 60.7899 62.09 60.6499C62 60.5099 61.9 60.3599 61.81 60.2199C61.75 60.1299 61.69 60.0499 61.63 59.9599C61.62 59.9499 61.61 59.9399 61.6 59.9299C65.34 65.7999 65.98 75.6999 62.4 81.9599C57.67 87.8399 46.2 88.3499 36.82 87.4299C41 88.2499 45.85 88.9899 49.86 89.3799C52.48 89.6399 54.77 89.7 56.2 89.67Z" fill="url(#paint2_radial_1_4)"/>
<path fill-rule="evenodd" clip-rule="evenodd" d="M47.11 65.32C47.08 65.28 47.04 65.19 47.01 65.14C47 65.12 46.94 65.03 46.93 65.01C46.85 64.88 46.65 64.48 46.61 64.4C45.87 62.92 45.59 61.7 45.45 61.16C44.23 56.47 44.49 50.78 45.88 46.2C45.99 45.84 47.15 43.7 47.7 43.06C52.99 37.27 65.31 36.11 73.99 35.8C73.56 35.8 73.19 35.78 72.68 35.77C66.1 35.63 58.42 35.46 52.17 36.43C45.33 37.52 40.59 39.87 39.92 45.24C39.49 53.28 42.32 59.62 47.55 66.08C47.45 65.88 47.25 65.56 47.11 65.32Z" fill="url(#paint3_radial_1_4)"/>
<path fill-rule="evenodd" clip-rule="evenodd" d="M87.6 1.58995C84.41 0.939952 81.06 0.479954 77.59 0.279954C47.53 -1.52005 18.6 15.0299 13.03 37.2699C8.56001 55.1199 20.45 71.18 40.79 77.78C49.41 80.57 56.27 75.4299 51.19 70.0799C43.14 61.6099 38.73 53.3599 40.23 42.3999C41.93 30.3999 50.24 17.19 62.79 9.06996C69.55 4.66996 78.85 1.10995 87.6 1.58995Z" fill="url(#paint4_linear_1_4)"/>
<path fill-rule="evenodd" clip-rule="evenodd" d="M92.05 2.65999C90.61 2.27999 89.11 1.89998 87.6 1.58998C78.86 1.10998 69.55 4.66998 62.77 9.05998C50.22 17.18 41.91 30.38 40.21 42.39C40.08 43.36 39.99 44.3 39.95 45.23C40.6 39.93 45.35 37.53 52.27 36.43C62.03 34.92 75.28 36.21 82.39 35.76C109.8 34.08 117.88 10.01 92.05 2.65999Z" fill="url(#paint5_linear_1_4)"/>
<defs>
<linearGradient id="paint0_linear_1_4" x1="56.8152" y1="123.018" x2="58.3693" y2="37.9156" gradientUnits="userSpaceOnUse">
<stop stop-color="#21E9FF"/>
<stop offset="0.4975" stop-color="#0BA8FF"/>
<stop offset="1" stop-color="#0062FF"/>
</linearGradient>
<linearGradient id="paint1_linear_1_4" x1="78.3406" y1="74.4763" x2="-18.7043" y2="125.781" gradientUnits="userSpaceOnUse">
<stop stop-color="#0F00FF"/>
<stop offset="0.1042" stop-color="#0F05FF"/>
<stop offset="0.2362" stop-color="#1015FF"/>
<stop offset="0.3831" stop-color="#122FFF"/>
<stop offset="0.5408" stop-color="#1453FF"/>
<stop offset="0.7072" stop-color="#1782FF"/>
<stop offset="0.8782" stop-color="#1BBAFF"/>
<stop offset="1" stop-color="#1EE6FF"/>
</linearGradient>
<radialGradient id="paint2_radial_1_4" cx="0" cy="0" r="1" gradientUnits="userSpaceOnUse" gradientTransform="translate(52.4956 74.9284) rotate(-0.899561) scale(23.9 23.9)">
<stop stop-color="white"/>
<stop offset="1" stop-color="#808080"/>
</radialGradient>
<radialGradient id="paint3_radial_1_4" cx="0" cy="0" r="1" gradientUnits="userSpaceOnUse" gradientTransform="translate(56.9615 50.8741) scale(25.1274 25.1274)">
<stop stop-color="white"/>
<stop offset="1" stop-color="#808080"/>
</radialGradient>
<linearGradient id="paint4_linear_1_4" x1="47.6367" y1="2.98027" x2="55.5115" y2="88.523" gradientUnits="userSpaceOnUse">
<stop stop-color="#21E9FF"/>
<stop offset="0.4975" stop-color="#0BA8FF"/>
<stop offset="1" stop-color="#0062FF"/>
</linearGradient>
<linearGradient id="paint5_linear_1_4" x1="115.928" y1="1.41048" x2="12.7484" y2="55.9581" gradientUnits="userSpaceOnUse">
<stop stop-color="#0000FF"/>
<stop offset="0.5191" stop-color="#5B05FF"/>
<stop offset="0.6292" stop-color="#4F04FF"/>
<stop offset="0.8268" stop-color="#3003FF"/>
<stop offset="1" stop-color="#5BCBFA"/>
</linearGradient>
</defs>
</svg>
