<svg width="430" height="124" viewBox="0 0 430 124" fill="none" xmlns="http://www.w3.org/2000/svg">
<path d="M216.9 65.77H199.84V76H213.27V106.6H138.18C132.08 106.6 129.79 102.28 129.79 97V76H143.23V65.76H126.17V58.38H216.9V65.77ZM180.97 17.65V22.61C180.97 32 195.74 44.88 216.14 46.35V53.84C197.94 53.31 180.02 46.98 171.54 36.64C163.06 46.98 145.15 53.31 126.94 53.84V46.35C147.33 44.87 162.11 32 162.11 22.61V17.65H180.97ZM148.28 83.39V99.22H194.79V83.39H148.28ZM161.72 76H181.35V65.76H161.72V76Z" fill="white"/>
<path d="M231.06 101.33V93.9399H237.92V27.14H232.01V19.75H281.57V27.14H276.62V93.9399H282.91V101.33H231.06ZM254.13 93.9399H260.42V27.14H254.13V93.9399ZM286.82 106.61V63.66H278.72V56.27H286.82V28.3101C286.82 23.0301 289.11 18.7 295.21 18.7H303.31V106.6H286.82V106.61ZM307.6 106.61V28.3101C307.6 23.0301 309.88 18.7 315.98 18.7H324.27V106.6H307.6V106.61Z" fill="white"/>
<path d="M360.23 56.16H389.11V63.55H360.23V95H399.5V102.39H350.32C344.22 102.39 341.93 98.06 341.93 92.78V19.76H394.35V27.15H360.23V56.16ZM410.93 106.61V62.61H394.35V55.23H410.93V28.3199C410.93 23.0399 413.22 18.71 419.32 18.71H429.42V106.61H410.93Z" fill="white"/>
<path fill-rule="evenodd" clip-rule="evenodd" d="M19.07 119.11C22.12 120.24 25.35 121.19 28.71 121.92C57.79 128.22 87 116.08 93.9 94.79C99.44 77.7 88.96 59.94 69.64 50.33C61.45 46.27 54.4 50.3899 59.03 56.4399C66.43 66.1299 70.02 74.94 67.83 85.63C65.38 97.32 56.42 109.22 43.69 115.41C36.81 118.75 27.53 120.9 19.07 119.11Z" fill="url(#paint0_linear_1_36)"/>
<path fill-rule="evenodd" clip-rule="evenodd" d="M43.68 115.43C56.41 109.23 65.37 97.34 67.82 85.65C68.01 84.71 68.16 83.78 68.26 82.86C67.28 88.03 62.5 89.69 55.7 89.77C46.17 89.88 33.33 86.5401 26.4 85.9301C-0.340004 83.4901 -9.79 106.23 14.81 117.41C16.18 118.01 17.61 118.61 19.06 119.14C27.53 120.93 36.8 118.78 43.68 115.43Z" fill="url(#paint1_linear_1_36)"/>
<path fill-rule="evenodd" clip-rule="evenodd" d="M87.6 1.68999C84.41 1.03999 81.06 0.579991 77.59 0.379991C47.53 -1.42001 18.6 15.13 13.03 37.37C8.56001 55.22 20.45 71.28 40.79 77.88C49.41 80.67 56.27 75.53 51.19 70.18C43.14 61.71 38.73 53.46 40.23 42.5C41.93 30.5 50.24 17.29 62.79 9.17003C69.55 4.77003 78.85 1.19999 87.6 1.68999Z" fill="url(#paint2_linear_1_36)"/>
<path fill-rule="evenodd" clip-rule="evenodd" d="M92.05 2.75001C90.61 2.37001 89.11 1.99001 87.6 1.68001C78.86 1.20001 69.55 4.76004 62.77 9.15004C50.22 17.27 41.91 30.47 40.21 42.48C40.08 43.45 39.99 44.39 39.95 45.32C40.6 40.02 45.35 37.62 52.27 36.52C62.03 35.01 75.28 36.3 82.39 35.85C109.8 34.17 117.88 10.1 92.05 2.75001Z" fill="url(#paint3_linear_1_36)"/>
<defs>
<linearGradient id="paint0_linear_1_36" x1="56.8219" y1="123.128" x2="58.376" y2="38.0259" gradientUnits="userSpaceOnUse">
<stop stop-color="#21E9FF"/>
<stop offset="0.4975" stop-color="#0BA8FF"/>
<stop offset="1" stop-color="#0062FF"/>
</linearGradient>
<linearGradient id="paint1_linear_1_36" x1="78.3406" y1="74.5673" x2="-18.7043" y2="125.872" gradientUnits="userSpaceOnUse">
<stop stop-color="#0F00FF"/>
<stop offset="0.1042" stop-color="#0F05FF"/>
<stop offset="0.2362" stop-color="#1015FF"/>
<stop offset="0.3831" stop-color="#122FFF"/>
<stop offset="0.5408" stop-color="#1453FF"/>
<stop offset="0.7072" stop-color="#1782FF"/>
<stop offset="0.8782" stop-color="#1BBAFF"/>
<stop offset="1" stop-color="#1EE6FF"/>
</linearGradient>
<linearGradient id="paint2_linear_1_36" x1="47.6424" y1="3.10443" x2="55.5173" y2="88.6471" gradientUnits="userSpaceOnUse">
<stop stop-color="#21E9FF"/>
<stop offset="0.4975" stop-color="#0BA8FF"/>
<stop offset="1" stop-color="#0062FF"/>
</linearGradient>
<linearGradient id="paint3_linear_1_36" x1="115.928" y1="1.5014" x2="12.7485" y2="56.0491" gradientUnits="userSpaceOnUse">
<stop stop-color="#0000FF"/>
<stop offset="0.5191" stop-color="#5B05FF"/>
<stop offset="0.6292" stop-color="#4F04FF"/>
<stop offset="0.8268" stop-color="#3003FF"/>
<stop offset="1" stop-color="#5BCBFA"/>
</linearGradient>
</defs>
</svg>
