<svg width="736" height="108" viewBox="0 0 736 108" fill="none" xmlns="http://www.w3.org/2000/svg">
<path fill-rule="evenodd" clip-rule="evenodd" d="M16.38 103.84C19.04 104.82 21.84 105.65 24.77 106.28C50.07 111.76 75.47 101.2 81.47 82.6801C86.29 67.8101 77.17 52.37 60.37 44C53.25 40.46 47.12 44.0501 51.14 49.3101C57.58 57.7301 60.7 65.4 58.8 74.7C56.67 84.87 48.88 95.22 37.8 100.61C31.81 103.53 23.74 105.4 16.38 103.84Z" fill="url(#paint0_linear_1_46)"/>
<path fill-rule="evenodd" clip-rule="evenodd" d="M37.79 100.64C48.86 95.25 56.65 84.9 58.79 74.73C58.96 73.91 59.08 73.1001 59.17 72.3101C58.32 76.8101 54.16 78.2499 48.25 78.3199C39.96 78.4199 28.79 75.51 22.76 74.98C-0.500002 72.86 -8.72002 92.63 12.68 102.36C13.87 102.88 15.12 103.41 16.38 103.86C23.73 105.42 31.8 103.55 37.79 100.64Z" fill="url(#paint1_linear_1_46)"/>
<path fill-rule="evenodd" clip-rule="evenodd" d="M75.99 1.69999C73.22 1.12999 70.3 0.740098 67.28 0.560098C41.13 -1.0099 15.97 13.39 11.12 32.73C7.23 48.26 17.57 62.22 35.26 67.96C42.76 70.38 48.72 65.91 44.3 61.26C37.3 53.89 33.46 46.7201 34.76 37.1801C36.24 26.7401 43.47 15.25 54.38 8.18998C60.29 4.37998 68.38 1.27999 75.99 1.69999Z" fill="url(#paint2_linear_1_46)"/>
<path fill-rule="evenodd" clip-rule="evenodd" d="M79.85 2.63C78.6 2.3 77.3 1.95995 75.98 1.69995C68.37 1.27995 60.28 4.37994 54.38 8.18994C43.47 15.2499 36.24 26.7401 34.76 37.18C34.65 38.02 34.57 38.84 34.54 39.65C35.1 35.04 39.24 32.95 45.26 31.99C53.75 30.67 65.28 31.8 71.46 31.4C95.3 29.96 102.32 9.02 79.85 2.63Z" fill="url(#paint3_linear_1_46)"/>
<path d="M298.63 80.58H287.52V56.64H258.05V80.58H246.94V26.6899H258.05V48.16H287.52V26.6899H298.63V80.58Z" fill="white"/>
<path d="M365.15 72.65C365.15 73.79 364.89 74.84 364.38 75.8C363.87 76.76 363.2 77.59 362.37 78.3C361.54 79.01 360.56 79.56 359.43 79.98C358.3 80.39 357.1 80.6 355.81 80.6H319.57C318.28 80.6 317.07 80.39 315.95 79.98C314.82 79.57 313.84 79.01 313.01 78.3C312.18 77.59 311.51 76.76 311 75.8C310.49 74.84 310.23 73.79 310.23 72.65V26.6899H321.34V70.87C321.34 71.24 321.47 71.53 321.74 71.76C322.01 71.99 322.36 72.1 322.79 72.1H352.59C353.02 72.1 353.37 71.99 353.64 71.76C353.91 71.53 354.04 71.24 354.04 70.87V26.6899H365.15V72.65Z" fill="white"/>
<path d="M441.98 80.58H430.87V54.9301C430.87 53.7001 430.88 52.3 430.91 50.72C430.94 49.15 430.96 47.53 430.99 45.86C431.02 44.2 431.04 42.58 431.07 41C431.1 39.43 431.11 38.03 431.11 36.79L416.78 80.5601H401.96L387.63 36.79C387.63 38.07 387.64 39.4901 387.67 41.0601C387.7 42.6301 387.72 44.23 387.75 45.85C387.78 47.47 387.8 49.06 387.83 50.64C387.86 52.21 387.87 53.64 387.87 54.91V80.5601H376.76V26.67H394.48L405.67 61.27C406.1 62.64 406.64 64.38 407.28 66.5C407.92 68.62 408.62 70.8 409.37 73.03C410.12 70.8 410.82 68.61 411.46 66.46C412.1 64.32 412.64 62.58 413.07 61.26L424.26 26.66H441.98V80.58Z" fill="white"/>
<path d="M501.81 54.1899C501.81 55.3299 501.55 56.38 501.04 57.34C500.53 58.3 499.86 59.13 499.03 59.84C498.2 60.55 497.22 61.11 496.09 61.52C494.96 61.93 493.75 62.14 492.47 62.14H465.17V80.6H454.06V26.71H492.47C493.76 26.71 494.97 26.92 496.09 27.33C497.22 27.74 498.2 28.3 499.03 29.01C499.86 29.72 500.53 30.55 501.04 31.51C501.55 32.47 501.81 33.52 501.81 34.66V54.1899ZM489.25 53.64C489.68 53.64 490.03 53.53 490.3 53.3C490.57 53.07 490.7 52.78 490.7 52.41V36.41C490.7 36.05 490.57 35.75 490.3 35.52C490.03 35.29 489.68 35.1801 489.25 35.1801H465.17V53.64H489.25Z" fill="white"/>
<path d="M559.95 80.58H521.62C520.33 80.58 519.12 80.37 518 79.96C516.87 79.55 515.89 78.99 515.06 78.28C514.23 77.57 513.56 76.74 513.05 75.78C512.54 74.82 512.29 73.77 512.29 72.63V34.61C512.29 33.47 512.54 32.42 513.05 31.46C513.56 30.5 514.23 29.67 515.06 28.96C515.89 28.25 516.87 27.69 518 27.28C519.13 26.87 520.33 26.66 521.62 26.66H558.34V35.14H524.84C524.41 35.14 524.06 35.25 523.79 35.48C523.52 35.71 523.39 36 523.39 36.37V47.86H556.33V56.34H523.39V70.84C523.39 71.21 523.52 71.5 523.79 71.73C524.06 71.96 524.41 72.0699 524.84 72.0699H559.95V80.58Z" fill="white"/>
<path d="M598.53 80.58H587.42V35.17H568.9V26.6899H617.06V35.17H598.54V80.58H598.53Z" fill="white"/>
<path d="M672.86 80.58H634.53C633.24 80.58 632.03 80.37 630.91 79.96C629.78 79.55 628.8 78.99 627.97 78.28C627.14 77.57 626.47 76.74 625.96 75.78C625.45 74.82 625.2 73.77 625.2 72.63V34.61C625.2 33.47 625.45 32.42 625.96 31.46C626.47 30.5 627.14 29.67 627.97 28.96C628.8 28.25 629.78 27.69 630.91 27.28C632.04 26.87 633.24 26.66 634.53 26.66H671.25V35.14H637.75C637.32 35.14 636.97 35.25 636.7 35.48C636.43 35.71 636.3 36 636.3 36.37V47.86H669.24V56.34H636.3V70.84C636.3 71.21 636.43 71.5 636.7 71.73C636.97 71.96 637.32 72.0699 637.75 72.0699H672.86V80.58Z" fill="white"/>
<path d="M735.19 80.58H722.63L709.5 58.76H694.76V80.58H683.65V26.6899H722.06C723.35 26.6899 724.56 26.9001 725.68 27.3101C726.81 27.7201 727.79 28.28 728.62 28.99C729.45 29.7 730.12 30.53 730.63 31.49C731.14 32.45 731.4 33.5 731.4 34.64V50.85C731.4 51.99 731.14 53.04 730.63 54C730.12 54.96 729.45 55.79 728.62 56.5C727.79 57.21 726.81 57.7701 725.68 58.1801C724.55 58.5901 723.34 58.8 722.06 58.8H721.82L735.19 80.58ZM718.84 50.29C719.27 50.29 719.62 50.18 719.89 49.95C720.16 49.72 720.29 49.4301 720.29 49.0601V36.41C720.29 36.05 720.16 35.75 719.89 35.52C719.62 35.29 719.27 35.1801 718.84 35.1801H694.76V50.29H718.84Z" fill="white"/>
<path d="M170.74 52.51C170.23 51.55 169.56 50.72 168.73 50.01C167.9 49.3 166.92 48.74 165.79 48.33C164.66 47.92 163.45 47.71 162.17 47.71H133.18C132.75 47.71 132.4 47.6 132.13 47.37C131.86 47.14 131.73 46.85 131.73 46.48V36.22C131.73 35.86 131.86 35.56 132.13 35.33C132.4 35.1 132.75 34.99 133.18 34.99H167.41V26.51H129.96C128.67 26.51 127.46 26.72 126.34 27.13C125.21 27.54 124.23 28.1001 123.4 28.8101C122.57 29.5201 121.9 30.3501 121.39 31.3101C120.88 32.2701 120.62 33.32 120.62 34.46V48.27C120.62 49.41 120.87 50.46 121.39 51.42C121.9 52.38 122.57 53.21 123.4 53.92C124.23 54.63 125.21 55.18 126.34 55.6C127.47 56.01 128.68 56.22 129.96 56.22H158.95C159.38 56.22 159.73 56.3301 160 56.5601C160.27 56.7901 160.4 57.08 160.4 57.45V70.72C160.4 71.09 160.27 71.38 160 71.61C159.73 71.84 159.38 71.95 158.95 71.95H132.78C132.65 71.95 125.47 71.93 122.18 71.91V80.4301H162.17C163.46 80.4301 164.67 80.2201 165.79 79.8101C166.92 79.4001 167.9 78.84 168.73 78.13C169.56 77.42 170.23 76.59 170.74 75.63C171.25 74.67 171.5 73.62 171.5 72.48V55.66C171.51 54.52 171.25 53.47 170.74 52.51Z" fill="white"/>
<path d="M235.38 72.4C231.87 72.43 225.28 72.4399 225.14 72.4399H195.34C194.91 72.4399 194.56 72.33 194.29 72.1C194.02 71.87 193.89 71.58 193.89 71.21V36.74C193.89 36.38 194.02 36.08 194.29 35.85C194.56 35.62 194.91 35.51 195.34 35.51L235.38 35.58V27.03H192.12C190.83 27.03 189.62 27.24 188.5 27.65C187.37 28.06 186.39 28.62 185.56 29.33C184.73 30.04 184.06 30.87 183.55 31.83C183.04 32.79 182.78 33.84 182.78 34.98V73C182.78 74.14 183.03 75.19 183.55 76.15C184.06 77.11 184.73 77.94 185.56 78.65C186.39 79.36 187.37 79.92 188.5 80.33C189.63 80.74 190.84 80.95 192.12 80.95H235.38V72.4Z" fill="white"/>
<defs>
<linearGradient id="paint0_linear_1_46" x1="49.232" y1="107.335" x2="50.5839" y2="33.3103" gradientUnits="userSpaceOnUse">
<stop stop-color="#21E9FF"/>
<stop offset="0.4975" stop-color="#0BA8FF"/>
<stop offset="1" stop-color="#0062FF"/>
</linearGradient>
<linearGradient id="paint1_linear_1_46" x1="67.9335" y1="65.0981" x2="-16.4795" y2="109.725" gradientUnits="userSpaceOnUse">
<stop stop-color="#0F00FF"/>
<stop offset="0.1042" stop-color="#0F05FF"/>
<stop offset="0.2362" stop-color="#1015FF"/>
<stop offset="0.3831" stop-color="#122FFF"/>
<stop offset="0.5408" stop-color="#1453FF"/>
<stop offset="0.7072" stop-color="#1782FF"/>
<stop offset="0.8782" stop-color="#1BBAFF"/>
<stop offset="1" stop-color="#1EE6FF"/>
</linearGradient>
<linearGradient id="paint2_linear_1_46" x1="41.2275" y1="2.94222" x2="48.0773" y2="77.3499" gradientUnits="userSpaceOnUse">
<stop stop-color="#21E9FF"/>
<stop offset="0.4975" stop-color="#0BA8FF"/>
<stop offset="1" stop-color="#0062FF"/>
</linearGradient>
<linearGradient id="paint3_linear_1_46" x1="100.628" y1="1.54274" x2="10.879" y2="48.9901" gradientUnits="userSpaceOnUse">
<stop stop-color="#0000FF"/>
<stop offset="0.5191" stop-color="#5B05FF"/>
<stop offset="0.6292" stop-color="#4F04FF"/>
<stop offset="0.8268" stop-color="#3003FF"/>
<stop offset="1" stop-color="#5BCBFA"/>
</linearGradient>
</defs>
</svg>
