<svg width="736" height="108" viewBox="0 0 736 108" fill="none" xmlns="http://www.w3.org/2000/svg">
<path fill-rule="evenodd" clip-rule="evenodd" d="M16.38 103.75C19.04 104.73 21.84 105.56 24.77 106.19C50.07 111.67 75.47 101.11 81.47 82.59C86.29 67.72 77.17 52.28 60.37 43.91C53.25 40.37 47.12 43.96 51.14 49.22C57.58 57.64 60.7 65.31 58.8 74.61C56.67 84.78 48.88 95.13 37.8 100.52C31.81 103.44 23.74 105.31 16.38 103.75Z" fill="url(#paint0_linear_1_17)"/>
<path fill-rule="evenodd" clip-rule="evenodd" d="M37.79 100.55C48.86 95.16 56.65 84.81 58.79 74.64C58.96 73.82 59.08 73.01 59.17 72.22C58.32 76.72 54.16 78.16 48.25 78.23C39.96 78.33 28.79 75.42 22.76 74.89C-0.500002 72.77 -8.72002 92.54 12.68 102.27C13.87 102.79 15.12 103.32 16.38 103.77C23.73 105.33 31.8 103.46 37.79 100.55Z" fill="url(#paint1_linear_1_17)"/>
<path fill-rule="evenodd" clip-rule="evenodd" d="M48.67 78.22C54.63 78.09 58.49 76.41 59.16 72.21C59.4 70.1 59.41 68.08 59.15 66.11C59.15 66.1 59.15 66.09 59.15 66.09C59.12 65.86 59.08 65.63 59.05 65.41C59.05 65.38 59.04 65.36 59.04 65.33C59 65.11 58.96 64.9 58.92 64.68C58.91 64.64 58.91 64.61 58.9 64.57C58.86 64.36 58.81 64.15 58.77 63.94C58.76 63.9 58.75 63.86 58.74 63.82C58.69 63.62 58.64 63.41 58.59 63.21C58.58 63.17 58.5701 63.13 58.5601 63.08C58.5101 62.88 58.45 62.67 58.39 62.47C58.38 62.43 58.37 62.39 58.35 62.35C58.29 62.15 58.23 61.94 58.16 61.74C58.15 61.7 58.14 61.67 58.12 61.63C58.05 61.42 57.98 61.21 57.91 61C57.9 60.98 57.9 60.96 57.89 60.94C57.48 59.79 57.0001 58.66 56.4301 57.53C56.4101 57.49 56.4 57.46 56.38 57.42C56.29 57.25 56.2 57.07 56.11 56.9C56.07 56.83 56.04 56.76 56 56.68C55.92 56.52 55.83 56.37 55.75 56.21C55.7 56.12 55.65 56.03 55.6 55.94C55.52 55.79 55.43 55.65 55.35 55.5C55.29 55.4 55.2401 55.3 55.1801 55.2C55.1001 55.06 55.0201 54.92 54.9301 54.78C54.8701 54.67 54.8 54.57 54.74 54.46C54.66 54.33 54.57 54.19 54.49 54.06C54.42 53.95 54.35 53.84 54.28 53.72C54.2 53.59 54.12 53.46 54.03 53.33C53.95 53.21 53.88 53.09 53.8 52.97C53.72 52.85 53.64 52.72 53.55 52.6C53.5 52.52 53.45 52.45 53.4 52.37C53.39 52.36 53.38 52.35 53.37 52.34C56.62 57.44 57.1799 66.06 54.0699 71.5C49.9499 76.62 39.98 77.06 31.82 76.26C35.45 76.97 39.68 77.62 43.17 77.96C45.44 78.2 47.43 78.25 48.67 78.22Z" fill="url(#paint2_radial_1_17)"/>
<path fill-rule="evenodd" clip-rule="evenodd" d="M40.77 57.04C40.75 57 40.71 56.92 40.69 56.89C40.68 56.87 40.63 56.79 40.62 56.78C40.55 56.67 40.38 56.32 40.35 56.25C39.7 54.96 39.46 53.9 39.34 53.44C38.28 49.36 38.51 44.42 39.72 40.43C39.82 40.12 40.82 38.25 41.31 37.7C45.91 32.67 56.63 31.66 64.18 31.38C63.81 31.38 63.48 31.36 63.04 31.36C57.31 31.24 50.64 31.09 45.2 31.93C39.25 32.88 35.12 34.92 34.55 39.59C34.18 46.59 36.64 52.1 41.18 57.72C41.06 57.53 40.89 57.25 40.77 57.04Z" fill="url(#paint3_radial_1_17)"/>
<path fill-rule="evenodd" clip-rule="evenodd" d="M75.99 1.60999C73.22 1.03999 70.3 0.650009 67.28 0.470009C41.13 -1.09999 15.97 13.3 11.12 32.64C7.23 48.17 17.57 62.13 35.26 67.87C42.76 70.29 48.72 65.82 44.3 61.17C37.3 53.8 33.46 46.63 34.76 37.09C36.24 26.65 43.47 15.16 54.38 8.10001C60.29 4.29001 68.38 1.18999 75.99 1.60999Z" fill="url(#paint4_linear_1_17)"/>
<path fill-rule="evenodd" clip-rule="evenodd" d="M79.85 2.54C78.6 2.21 77.3 1.86998 75.98 1.60998C68.37 1.18998 60.28 4.29 54.38 8.1C43.47 15.16 36.24 26.65 34.76 37.09C34.65 37.93 34.57 38.75 34.54 39.56C35.1 34.95 39.24 32.86 45.26 31.9C53.75 30.58 65.28 31.71 71.46 31.31C95.3 29.86 102.32 8.93 79.85 2.54Z" fill="url(#paint5_linear_1_17)"/>
<path d="M298.63 80.49H287.52V56.55H258.05V80.49H246.94V26.6H258.05V48.07H287.52V26.6H298.63V80.49Z" fill="black"/>
<path d="M365.15 72.56C365.15 73.7 364.89 74.75 364.38 75.71C363.87 76.67 363.2 77.5 362.37 78.21C361.54 78.92 360.56 79.47 359.43 79.89C358.3 80.3 357.1 80.51 355.81 80.51H319.57C318.28 80.51 317.07 80.3 315.95 79.89C314.82 79.48 313.84 78.92 313.01 78.21C312.18 77.5 311.51 76.67 311 75.71C310.49 74.75 310.23 73.7 310.23 72.56V26.6H321.34V70.78C321.34 71.15 321.47 71.44 321.74 71.67C322.01 71.9 322.36 72.01 322.79 72.01H352.59C353.02 72.01 353.37 71.9 353.64 71.67C353.91 71.44 354.04 71.15 354.04 70.78V26.6H365.15V72.56Z" fill="black"/>
<path d="M441.98 80.49H430.87V54.84C430.87 53.61 430.88 52.21 430.91 50.63C430.94 49.06 430.96 47.44 430.99 45.77C431.02 44.11 431.04 42.49 431.07 40.91C431.1 39.34 431.11 37.94 431.11 36.7L416.78 80.47H401.96L387.63 36.7C387.63 37.98 387.64 39.4 387.67 40.97C387.7 42.54 387.72 44.14 387.75 45.76C387.78 47.38 387.8 48.97 387.83 50.55C387.86 52.12 387.87 53.55 387.87 54.82V80.47H376.76V26.6H394.48L405.67 61.2C406.1 62.57 406.64 64.31 407.28 66.43C407.92 68.55 408.62 70.73 409.37 72.96C410.12 70.73 410.82 68.54 411.46 66.39C412.1 64.25 412.64 62.51 413.07 61.19L424.26 26.59H441.98V80.49Z" fill="black"/>
<path d="M501.81 54.1C501.81 55.24 501.55 56.29 501.04 57.25C500.53 58.21 499.86 59.04 499.03 59.75C498.2 60.46 497.22 61.02 496.09 61.43C494.96 61.84 493.75 62.05 492.47 62.05H465.17V80.51H454.06V26.6H492.47C493.76 26.6 494.97 26.81 496.09 27.22C497.22 27.63 498.2 28.19 499.03 28.9C499.86 29.61 500.53 30.44 501.04 31.4C501.55 32.36 501.81 33.41 501.81 34.55V54.1ZM489.25 53.55C489.68 53.55 490.03 53.44 490.3 53.21C490.57 52.98 490.7 52.69 490.7 52.32V36.32C490.7 35.96 490.57 35.66 490.3 35.43C490.03 35.2 489.68 35.09 489.25 35.09H465.17V53.55H489.25Z" fill="black"/>
<path d="M559.95 80.49H521.62C520.33 80.49 519.12 80.28 518 79.87C516.87 79.46 515.89 78.9 515.06 78.19C514.23 77.48 513.56 76.65 513.05 75.69C512.54 74.73 512.29 73.68 512.29 72.54V34.52C512.29 33.38 512.54 32.33 513.05 31.37C513.56 30.41 514.23 29.58 515.06 28.87C515.89 28.16 516.87 27.61 518 27.19C519.13 26.78 520.33 26.57 521.62 26.57H558.34V35.05H524.84C524.41 35.05 524.06 35.16 523.79 35.39C523.52 35.62 523.39 35.91 523.39 36.28V47.77H556.33V56.25H523.39V70.75C523.39 71.12 523.52 71.41 523.79 71.64C524.06 71.87 524.41 71.98 524.84 71.98H559.95V80.49Z" fill="black"/>
<path d="M598.53 80.49H587.42V35.08H568.9V26.6H617.06V35.08H598.54V80.49H598.53Z" fill="black"/>
<path d="M672.86 80.49H634.53C633.24 80.49 632.03 80.28 630.91 79.87C629.78 79.46 628.8 78.9 627.97 78.19C627.14 77.48 626.47 76.65 625.96 75.69C625.45 74.73 625.2 73.68 625.2 72.54V34.52C625.2 33.38 625.45 32.33 625.96 31.37C626.47 30.41 627.14 29.58 627.97 28.87C628.8 28.16 629.78 27.61 630.91 27.19C632.04 26.78 633.24 26.57 634.53 26.57H671.25V35.05H637.75C637.32 35.05 636.97 35.16 636.7 35.39C636.43 35.62 636.3 35.91 636.3 36.28V47.77H669.24V56.25H636.3V70.75C636.3 71.12 636.43 71.41 636.7 71.64C636.97 71.87 637.32 71.98 637.75 71.98H672.86V80.49Z" fill="black"/>
<path d="M735.19 80.49H722.63L709.5 58.67H694.76V80.49H683.65V26.6H722.06C723.35 26.6 724.56 26.81 725.68 27.22C726.81 27.63 727.79 28.19 728.62 28.9C729.45 29.61 730.12 30.44 730.63 31.4C731.14 32.36 731.4 33.41 731.4 34.55V50.76C731.4 51.9 731.14 52.95 730.63 53.91C730.12 54.87 729.45 55.7 728.62 56.41C727.79 57.12 726.81 57.68 725.68 58.09C724.55 58.5 723.34 58.71 722.06 58.71H721.82L735.19 80.49ZM718.84 50.2C719.27 50.2 719.62 50.09 719.89 49.86C720.16 49.63 720.29 49.34 720.29 48.97V36.32C720.29 35.96 720.16 35.66 719.89 35.43C719.62 35.2 719.27 35.09 718.84 35.09H694.76V50.2H718.84Z" fill="black"/>
<path d="M170.74 52.42C170.23 51.46 169.56 50.63 168.73 49.92C167.9 49.21 166.92 48.65 165.79 48.24C164.66 47.83 163.45 47.62 162.17 47.62H133.18C132.75 47.62 132.4 47.51 132.13 47.28C131.86 47.05 131.73 46.76 131.73 46.39V36.13C131.73 35.77 131.86 35.47 132.13 35.24C132.4 35.01 132.75 34.9 133.18 34.9H167.41V26.42H129.96C128.67 26.42 127.46 26.63 126.34 27.04C125.21 27.45 124.23 28.01 123.4 28.72C122.57 29.43 121.9 30.26 121.39 31.22C120.88 32.18 120.62 33.23 120.62 34.37V48.18C120.62 49.32 120.87 50.37 121.39 51.33C121.9 52.29 122.57 53.12 123.4 53.83C124.23 54.54 125.21 55.09 126.34 55.51C127.47 55.92 128.68 56.13 129.96 56.13H158.95C159.38 56.13 159.73 56.24 160 56.47C160.27 56.7 160.4 56.99 160.4 57.36V70.63C160.4 71 160.27 71.29 160 71.52C159.73 71.75 159.38 71.86 158.95 71.86H132.78C132.65 71.86 125.47 71.84 122.18 71.82V80.34H162.17C163.46 80.34 164.67 80.13 165.79 79.72C166.92 79.31 167.9 78.75 168.73 78.04C169.56 77.33 170.23 76.5 170.74 75.54C171.25 74.58 171.5 73.53 171.5 72.39V55.57C171.51 54.43 171.25 53.38 170.74 52.42Z" fill="black"/>
<path d="M235.38 72.31C231.87 72.34 225.28 72.35 225.14 72.35H195.34C194.91 72.35 194.56 72.24 194.29 72.01C194.02 71.78 193.89 71.49 193.89 71.12V36.65C193.89 36.29 194.02 35.99 194.29 35.76C194.56 35.53 194.91 35.42 195.34 35.42L235.38 35.49V26.94H192.12C190.83 26.94 189.62 27.15 188.5 27.56C187.37 27.97 186.39 28.53 185.56 29.24C184.73 29.95 184.06 30.78 183.55 31.74C183.04 32.7 182.78 33.75 182.78 34.89V72.91C182.78 74.05 183.03 75.1 183.55 76.06C184.06 77.02 184.73 77.85 185.56 78.56C186.39 79.27 187.37 79.83 188.5 80.24C189.63 80.65 190.84 80.86 192.12 80.86H235.38V72.31Z" fill="black"/>
<defs>
<linearGradient id="paint0_linear_1_17" x1="49.2254" y1="107.224" x2="50.5772" y2="33.1998" gradientUnits="userSpaceOnUse">
<stop stop-color="#21E9FF"/>
<stop offset="0.4975" stop-color="#0BA8FF"/>
<stop offset="1" stop-color="#0062FF"/>
</linearGradient>
<linearGradient id="paint1_linear_1_17" x1="67.9335" y1="65.0071" x2="-16.4796" y2="109.633" gradientUnits="userSpaceOnUse">
<stop stop-color="#0F00FF"/>
<stop offset="0.1042" stop-color="#0F05FF"/>
<stop offset="0.2362" stop-color="#1015FF"/>
<stop offset="0.3831" stop-color="#122FFF"/>
<stop offset="0.5408" stop-color="#1453FF"/>
<stop offset="0.7072" stop-color="#1782FF"/>
<stop offset="0.8782" stop-color="#1BBAFF"/>
<stop offset="1" stop-color="#1EE6FF"/>
</linearGradient>
<radialGradient id="paint2_radial_1_17" cx="0" cy="0" r="1" gradientUnits="userSpaceOnUse" gradientTransform="translate(45.4665 65.427) rotate(-0.899559) scale(20.789 20.789)">
<stop stop-color="white"/>
<stop offset="1" stop-color="#808080"/>
</radialGradient>
<radialGradient id="paint3_radial_1_17" cx="0" cy="0" r="1" gradientUnits="userSpaceOnUse" gradientTransform="translate(49.3372 44.4771) scale(21.8567 21.8567)">
<stop stop-color="white"/>
<stop offset="1" stop-color="#808080"/>
</radialGradient>
<linearGradient id="paint4_linear_1_17" x1="41.2218" y1="2.81783" x2="48.0715" y2="77.2258" gradientUnits="userSpaceOnUse">
<stop stop-color="#21E9FF"/>
<stop offset="0.4975" stop-color="#0BA8FF"/>
<stop offset="1" stop-color="#0062FF"/>
</linearGradient>
<linearGradient id="paint5_linear_1_17" x1="100.628" y1="1.45188" x2="10.8791" y2="48.8994" gradientUnits="userSpaceOnUse">
<stop stop-color="#0000FF"/>
<stop offset="0.5191" stop-color="#5B05FF"/>
<stop offset="0.6292" stop-color="#4F04FF"/>
<stop offset="0.8268" stop-color="#3003FF"/>
<stop offset="1" stop-color="#5BCBFA"/>
</linearGradient>
</defs>
</svg>
