<svg width="26" height="26" viewBox="0 0 26 26" fill="none" xmlns="http://www.w3.org/2000/svg">
<g id="&#240;&#159;&#166;&#134; icon &#34;wallet&#34;">
<path id="Vector" d="M22.3333 25.0007H3.66667C2.19391 25.0007 1 23.6902 1 22.0735V8.90088C1 7.2842 2.19391 5.97363 3.66667 5.97363H22.3333C23.8061 5.97363 25 7.2842 25 8.90088V22.0735C25 23.6902 23.8061 25.0007 22.3333 25.0007Z" stroke="black" stroke-width="2"/>
<path id="Vector_2" d="M18.9997 16.2195C18.6315 16.2195 18.333 15.8918 18.333 15.4877C18.333 15.0836 18.6315 14.7559 18.9997 14.7559C19.3678 14.7559 19.6663 15.0836 19.6663 15.4877C19.6663 15.8918 19.3678 16.2195 18.9997 16.2195Z" fill="black" stroke="black" stroke-width="2" stroke-linecap="round" stroke-linejoin="round"/>
<path id="Vector_3" d="M21 5.97418V3.92982C21 2.00653 19.3392 0.605858 17.6463 1.10141L2.97956 5.39472C1.81223 5.73643 1 6.89694 1 8.22313V8.90143" stroke="black" stroke-width="2"/>
</g>
</svg>
