<svg width="20" height="20" viewBox="0 0 20 20" fill="none" xmlns="http://www.w3.org/2000/svg">
<rect width="20" height="20" fill="white" fillOpacity="0.01"/>
<path d="M9.9958 12.4896C11.3758 12.4896 12.4945 11.3749 12.4945 9.99989C12.4945 8.62487 11.3758 7.51019 9.9958 7.51019C8.61577 7.51019 7.49704 8.62487 7.49704 9.99989C7.49704 11.3749 8.61577 12.4896 9.9958 12.4896Z" stroke="#090A0B" strokeWidth="1.6" stroke-miterlimit="10" strokeLinecap="round" strokeLinejoin="round"/>
<path d="M1.66663 10.7301V9.26953C1.66663 8.40643 2.37461 7.69272 3.24917 7.69272C4.75675 7.69272 5.37311 6.63045 4.61515 5.32751C4.18204 4.5806 4.44024 3.60962 5.19819 3.17807L6.63914 2.35647C7.29714 1.96642 8.14672 2.19879 8.53819 2.85441L8.62981 3.01209C9.37944 4.31503 10.6122 4.31503 11.3701 3.01209L11.4617 2.85441C11.8532 2.19879 12.7028 1.96642 13.3608 2.35647L14.8017 3.17807C15.5597 3.60962 15.8179 4.5806 15.3848 5.32751C14.6268 6.63045 15.2432 7.69272 16.7508 7.69272C17.617 7.69272 18.3333 8.39813 18.3333 9.26953V10.7301C18.3333 11.5932 17.6253 12.307 16.7508 12.307C15.2432 12.307 14.6268 13.3692 15.3848 14.6722C15.8179 15.4274 15.5597 16.3901 14.8017 16.8216L13.3608 17.6432C12.7028 18.0333 11.8532 17.8009 11.4617 17.1453L11.3701 16.9876C10.6205 15.6846 9.38777 15.6846 8.62981 16.9876L8.53819 17.1453C8.14672 17.8009 7.29714 18.0333 6.63914 17.6432L5.19819 16.8216C4.44024 16.3901 4.18204 15.4191 4.61515 14.6722C5.37311 13.3692 4.75675 12.307 3.24917 12.307C2.37461 12.307 1.66663 11.5932 1.66663 10.7301Z" stroke="#090A0B" strokeWidth="1.6" stroke-miterlimit="10" strokeLinecap="round" strokeLinejoin="round"/>
</svg>
