<svg width="258" height="208" viewBox="0 0 258 208" fill="none" xmlns="http://www.w3.org/2000/svg">
<g id="Group">
<path id="Vector" d="M5.6665 17.6666C5.6665 14.3956 6.9659 11.2586 9.27885 8.9456C11.5918 6.63266 14.7288 5.33325 17.9998 5.33325H240C243.271 5.33325 246.408 6.63266 248.721 8.9456C251.034 11.2586 252.333 14.3956 252.333 17.6666V190.333C252.333 193.604 251.034 196.741 248.721 199.054C246.408 201.367 243.271 202.667 240 202.667H17.9998C14.7288 202.667 11.5918 201.367 9.27885 199.054C6.9659 196.741 5.6665 193.604 5.6665 190.333V17.6666Z" stroke="#D6D6D6" stroke-width="10" stroke-linejoin="round"/>
<path id="Vector_2" d="M203 5.33325V202.667M54.9998 5.33325V202.667M215.333 66.9999H252.333M215.333 141H252.333M5.6665 66.9999H42.6665M5.6665 54.6666V79.3333M36.4998 5.33325H73.4998M36.4998 202.667H73.4998M184.5 5.33325H221.5M184.5 202.667H221.5M5.6665 141H42.6665M5.6665 128.667V153.333M252.333 128.667V153.333M252.333 54.6666V79.3333" stroke="#D6D6D6" stroke-width="10" stroke-linecap="round" stroke-linejoin="round"/>
<path id="Vector_3" d="M110.5 73.1665L159.833 104L110.5 134.833V73.1665Z" stroke="#D6D6D6" stroke-width="10" stroke-linejoin="round"/>
</g>
</svg>
