<svg width="24" height="24" viewBox="0 0 24 24" fill="none" xmlns="http://www.w3.org/2000/svg">
<path fill-rule="evenodd" clip-rule="evenodd" d="M11.77 21.54C13.7028 21.54 15.5921 20.9668 17.199 19.8928C18.8058 18.8188 20.0581 17.2922 20.7973 15.5063C21.5364 13.7205 21.7293 11.7558 21.3515 9.86034C20.9737 7.96488 20.0423 6.22386 18.6749 4.8579C17.3075 3.49194 15.5657 2.56236 13.6699 2.18651C11.774 1.81067 9.80931 2.00557 8.02425 2.74657C6.23919 3.48758 4.71402 4.74137 3.64168 6.34936C2.56934 7.95734 1.99803 9.84727 2.00001 11.78C2.00266 14.3695 3.03316 16.8518 4.8651 18.6819C6.69705 20.5119 9.18057 21.54 11.77 21.54Z" stroke="#101014" stroke-miterlimit="10"/>
<path fill-rule="evenodd" clip-rule="evenodd" d="M15.49 11.78C15.49 12.3105 15.2792 12.819 14.9042 13.1941C14.5291 13.5692 14.0204 13.78 13.49 13.78H9.48996V12.4299L6.76996 14.4299L9.48996 16.4299V15.0898H13.49C13.9334 15.0898 14.3724 15.0025 14.7819 14.8325C15.1914 14.6625 15.5634 14.4134 15.8764 14.0994C16.1895 13.7854 16.4375 13.4127 16.6063 13.0027C16.7751 12.5927 16.8613 12.1534 16.86 11.71L15.49 11.78ZM8.04996 11.78C8.04996 11.2496 8.26068 10.7408 8.63575 10.3657C9.01082 9.99065 9.51952 9.78003 10.05 9.78003H14.11V11.1499L16.8 9.1499L14.11 7.1499V8.48999H10.08C9.18527 8.49264 8.32811 8.84981 7.6964 9.4834C7.06469 10.117 6.70996 10.9752 6.70996 11.8699L8.04996 11.78Z" fill="#101014"/>
</svg>
