<svg width="24" height="24" viewBox="0 0 24 24" fill="none" xmlns="http://www.w3.org/2000/svg">
<path d="M7.5 9.5H7.51M12 9.5H12.01M16.5 9.5H16.51M7 17V19.3355C7 19.8684 7 20.1348 7.10923 20.2716C7.20422 20.3906 7.34827 20.4599 7.50054 20.4597C7.67563 20.4595 7.88367 20.2931 8.29976 19.9602L10.6852 18.0518C11.1725 17.662 11.4162 17.4671 11.6875 17.3285C11.9282 17.2055 12.1844 17.1156 12.4492 17.0613C12.7477 17 13.0597 17 13.6837 17H16.2C17.8802 17 18.7202 17 19.362 16.673C19.9265 16.3854 20.3854 15.9265 20.673 15.362C21 14.7202 21 13.8802 21 12.2V6.8C21 5.11984 21 4.27976 20.673 3.63803C20.3854 3.07354 19.9265 2.6146 19.362 2.32698C18.7202 2 17.8802 2 16.2 2H7.8C6.11984 2 5.27976 2 4.63803 2.32698C4.07354 2.6146 3.6146 3.07354 3.32698 3.63803C3 4.27976 3 5.11984 3 6.8V13C3 13.93 3 14.395 3.10222 14.7765C3.37962 15.8117 4.18827 16.6204 5.22354 16.8978C5.60504 17 6.07003 17 7 17ZM8 9.5C8 9.77614 7.77614 10 7.5 10C7.22386 10 7 9.77614 7 9.5C7 9.22386 7.22386 9 7.5 9C7.77614 9 8 9.22386 8 9.5ZM12.5 9.5C12.5 9.77614 12.2761 10 12 10C11.7239 10 11.5 9.77614 11.5 9.5C11.5 9.22386 11.7239 9 12 9C12.2761 9 12.5 9.22386 12.5 9.5ZM17 9.5C17 9.77614 16.7761 10 16.5 10C16.2239 10 16 9.77614 16 9.5C16 9.22386 16.2239 9 16.5 9C16.7761 9 17 9.22386 17 9.5Z" stroke="#101014" stroke-linecap="round" stroke-linejoin="round"/>
<path d="M18.0399 18.7798C17.7182 19.0818 17.3401 19.3176 16.9272 19.4736C16.5144 19.6296 16.0749 19.7026 15.6338 19.6887C15.1927 19.6748 14.7587 19.5742 14.3565 19.3925C13.9543 19.2108 13.5919 18.9516 13.2899 18.6298C12.6847 17.9777 12.3611 17.1133 12.3891 16.2241C12.4172 15.3349 12.7948 14.4925 13.4399 13.8798C13.7616 13.5778 14.1397 13.342 14.5525 13.186C14.9653 13.03 15.4048 12.957 15.8459 12.9709C16.287 12.9848 16.7211 13.0856 17.1232 13.2673C17.5254 13.449 17.8879 13.708 18.1899 14.0298C18.5904 14.4553 18.8731 14.9781 19.0099 15.5464C19.1467 16.1146 19.1329 16.7085 18.9699 17.2697C18.8035 17.8485 18.4818 18.3707 18.0399 18.7798Z" fill="white" stroke="#101014" stroke-miterlimit="10"/>
<path d="M19.8001 20.6499L18.0601 18.7998" stroke="#101014" stroke-miterlimit="10" stroke-linecap="round"/>
</svg>
