<svg width="24" height="24" viewBox="0 0 24 24" fill="none" xmlns="http://www.w3.org/2000/svg">
<path d="M9.3 20.5V13.7907C9.3 13.2829 9.3 13.029 9.3981 12.835C9.48438 12.6644 9.62207 12.5257 9.79141 12.4388C9.98393 12.34 10.236 12.34 10.74 12.34H13.26C13.764 12.34 14.0161 12.34 14.2086 12.4388C14.3779 12.5257 14.5156 12.6644 14.6019 12.835C14.7 13.029 14.7 13.2829 14.7 13.7907V20.5M3 10.0733L11.136 3.92613C11.4458 3.69204 11.6008 3.57499 11.7709 3.52987C11.9211 3.49004 12.0789 3.49004 12.2291 3.52987C12.3993 3.57499 12.5542 3.69204 12.864 3.92613L21 10.0733M4.8 8.71333V17.5987C4.8 18.6142 4.8 19.122 4.99619 19.5099C5.16876 19.8511 5.44413 20.1285 5.78282 20.3024C6.16786 20.5 6.67191 20.5 7.68 20.5H16.32C17.3281 20.5 17.8321 20.5 18.2172 20.3024C18.5559 20.1285 18.8312 19.8511 19.0038 19.5099C19.2 19.122 19.2 18.6142 19.2 17.5987V8.71333L13.728 4.57893C13.1083 4.11074 12.7985 3.87665 12.4582 3.78641C12.1579 3.70675 11.8421 3.70675 11.5418 3.78641C11.2015 3.87665 10.8917 4.11074 10.272 4.57893L4.8 8.71333Z" stroke="#101014" stroke-linecap="round" stroke-linejoin="round"/>
</svg>
