<svg width="24" height="24" viewBox="0 0 24 24" fill="none" xmlns="http://www.w3.org/2000/svg">
<circle cx="12" cy="12" r="9.5" stroke="#101014"/>
<path d="M8.10024 13.2C8.70776 13.2 9.20024 12.7076 9.20024 12.1001C9.20024 11.4926 8.70776 11 8.10024 11C7.49273 11 7.00024 11.4926 7.00024 12.1001C7.00024 12.7076 7.49273 13.2 8.10024 13.2Z" fill="#101014"/>
<path d="M12.0402 13.2C12.6477 13.2 13.1402 12.7076 13.1402 12.1001C13.1402 11.4926 12.6477 11 12.0402 11C11.4327 11 10.9402 11.4926 10.9402 12.1001C10.9402 12.7076 11.4327 13.2 12.0402 13.2Z" fill="#101014"/>
<path d="M15.9801 13.2C16.5876 13.2 17.0801 12.7076 17.0801 12.1001C17.0801 11.4926 16.5876 11 15.9801 11C15.3726 11 14.8801 11.4926 14.8801 12.1001C14.8801 12.7076 15.3726 13.2 15.9801 13.2Z" fill="#101014"/>
</svg>
