<svg width="24" height="24" viewBox="0 0 24 24" fill="none" xmlns="http://www.w3.org/2000/svg">
<path d="M9.78757 3H3.98114C2.88699 3 2 3.88686 2 4.98102V10.7875C2 11.8816 2.88699 12.7687 3.98114 12.7687H9.78757C10.8817 12.7687 11.7687 11.8816 11.7687 10.7875V4.98102C11.7687 3.88686 10.8817 3 9.78757 3Z" stroke="#101014" stroke-width="1.02" stroke-miterlimit="10"/>
<path d="M17.1957 22C15.9016 21.9944 14.6622 21.4771 13.7481 20.561C12.834 19.645 12.3194 18.4044 12.3167 17.1102C12.3194 15.8171 12.8344 14.5777 13.7488 13.6633C14.6632 12.7489 15.9026 12.234 17.1957 12.2313C18.4899 12.234 19.7304 12.7486 20.6464 13.6627C21.5625 14.5768 22.0798 15.8161 22.0853 17.1102C22.0826 18.4062 21.5665 19.6483 20.6501 20.5646C19.7338 21.481 18.4917 21.9972 17.1957 22Z" stroke="#101014" stroke-width="1.02" stroke-miterlimit="10"/>
<path d="M6.82649 8.65873C6.59722 9.12964 6.26173 9.54103 5.84646 9.8602C5.40032 10.201 4.89205 10.4515 4.35006 10.5978L3.90747 9.87075C4.38557 9.75652 4.83901 9.55652 5.24579 9.28056C5.61121 9.03261 5.91128 8.70008 6.12044 8.31115C6.32389 7.92464 6.42886 7.49397 6.42605 7.05719V6.0034H7.17424V7.05719C7.18251 7.6107 7.06354 8.15848 6.82649 8.65873ZM9.64013 6.55113H4.18146V5.80298H9.64013V6.55113ZM7.64845 8.29005C7.86059 8.67688 8.16008 9.00877 8.5231 9.25947C8.93274 9.53721 9.38997 9.73731 9.87197 9.84965L9.42937 10.5767C8.88641 10.433 8.37765 10.1822 7.93298 9.83911C7.51165 9.52345 7.17199 9.11165 6.94241 8.63789C6.70864 8.1369 6.59326 7.58882 6.60519 7.0361V5.9823H7.34285V7.0361C7.33653 7.47999 7.4416 7.91834 7.64845 8.31115V8.29005Z" fill="#101014"/>
<path d="M14.9197 19.5868L16.8376 14.244H17.7755L19.7145 19.5868H18.8503L17.3434 15.2242L15.7733 19.5868H14.9197ZM18.6923 17.4792V18.1641H15.9208V17.4792H18.6923Z" fill="#101014"/>
<path d="M19.3668 10.4926C19.3668 10.4926 19.3668 5.06543 13.9397 5.06543L14.4877 6.68832" stroke="#101014" stroke-width="1.02" stroke-linecap="round" stroke-linejoin="round"/>
<path d="M5.25635 14.8341C5.25635 14.8341 5.25635 19.2811 10.6834 19.2811L10.146 17.9428" stroke="#101014" stroke-width="0.92" stroke-linecap="round" stroke-linejoin="round"/>
</svg>
