<svg width="24" height="24" viewBox="0 0 24 24" fill="none" xmlns="http://www.w3.org/2000/svg">
<path d="M20.1 13.2504C18.9201 15.3201 16.6931 16.7156 14.1402 16.7156C10.354 16.7156 7.28467 13.6463 7.28467 9.86012C7.28467 7.30701 8.68034 5.07987 10.7503 3.90002C6.40181 4.31233 3 7.97426 3 12.4307C3 17.1634 6.83663 21 11.5693 21C16.0256 21 19.6874 17.5986 20.1 13.2504Z" fill="#101014"/>
<path d="M17.4 3L17.9561 4.11202C18.195 4.58991 18.3145 4.82885 18.4741 5.0359C18.6157 5.21963 18.7804 5.38435 18.9641 5.52597C19.1712 5.68558 19.4101 5.80505 19.888 6.04399L21 6.6L19.888 7.15601C19.4101 7.39495 19.1712 7.51442 18.9641 7.67403C18.7804 7.81565 18.6157 7.98037 18.4741 8.1641C18.3145 8.37115 18.195 8.61009 17.9561 9.08798L17.4 10.2L16.844 9.08798C16.6051 8.61009 16.4856 8.37115 16.326 8.1641C16.1844 7.98037 16.0197 7.81565 15.836 7.67403C15.6289 7.51442 15.39 7.39495 14.9121 7.15601L13.8 6.6L14.9121 6.04399C15.39 5.80505 15.6289 5.68558 15.836 5.52597C16.0197 5.38435 16.1844 5.21963 16.326 5.0359C16.4856 4.82885 16.6051 4.58991 16.844 4.11202L17.4 3Z" fill="#101014"/>
</svg>
