<svg width="24" height="24" viewBox="0 0 24 24" fill="none" xmlns="http://www.w3.org/2000/svg">
<path d="M19.6042 17.0517C19.2381 16.6315 18.9511 16.1535 18.7561 15.6391C18.5838 15.1545 18.4942 14.6465 18.4906 14.1347V10.1511C18.4903 8.76587 18.009 7.42012 17.1225 6.32558C16.236 5.23105 14.9946 4.44994 13.5937 4.1052C13.6294 3.97618 13.6468 3.84309 13.6453 3.70963C13.6605 3.4906 13.6287 3.27092 13.5516 3.0642C13.4745 2.85747 13.3539 2.66811 13.1973 2.50783C13.0407 2.34755 12.8514 2.21979 12.6412 2.13243C12.4309 2.04508 12.2041 2 11.9749 2C11.7457 2 11.519 2.04508 11.3087 2.13243C11.0985 2.21979 10.9092 2.34755 10.7526 2.50783C10.596 2.66811 10.4754 2.85747 10.3983 3.0642C10.3213 3.27092 10.2893 3.4906 10.3045 3.70963C10.3067 3.84287 10.3241 3.97554 10.3562 4.1052C8.95597 4.45104 7.71528 5.23242 6.82897 6.32671C5.94267 7.421 5.46092 8.76618 5.45935 10.1511V14.0782C5.4597 14.6129 5.36235 15.1436 5.17172 15.6462C4.99095 16.1623 4.71079 16.6414 4.34576 17.0588C4.13695 17.302 4.01613 17.6035 4.0015 17.9181C3.98688 18.2327 4.07924 18.5433 4.26464 18.8033C4.40184 19.0003 4.58859 19.1612 4.80767 19.271C5.02674 19.3809 5.27108 19.4362 5.51832 19.4319H9.59658C9.77975 19.8944 10.106 20.2924 10.5317 20.5726C10.9573 20.8528 11.4621 21.0019 11.9786 21C12.5577 20.9988 13.1193 20.8096 13.5716 20.4632C13.9257 20.1944 14.1961 19.8377 14.3533 19.4319H18.4389C18.733 19.4484 19.0256 19.3802 19.2788 19.236C19.5321 19.0917 19.7344 18.8782 19.8597 18.6229C19.9851 18.3675 20.0278 18.0821 19.9823 17.8033C19.9367 17.5246 19.805 17.2652 19.6042 17.0588V17.0517ZM19.0584 18.1888C19.0137 18.3116 18.9298 18.4179 18.8187 18.4927C18.7076 18.5674 18.5747 18.607 18.4389 18.6056H5.51832C5.41051 18.6073 5.30402 18.583 5.20863 18.5348C5.11325 18.4867 5.03206 18.4163 4.97259 18.3301C4.88703 18.2212 4.8408 18.0886 4.8408 17.9522C4.8408 17.8159 4.88703 17.6833 4.97259 17.5743C5.8198 16.5985 6.28186 15.3685 6.27794 14.0994V10.1158C6.28247 8.81996 6.76875 7.56799 7.64963 6.58433C8.59185 5.54395 9.90806 4.88089 11.337 4.72675C11.7195 4.6891 12.105 4.6891 12.4875 4.72675C12.6859 4.74642 12.8828 4.77708 13.0774 4.81857C14.348 5.07205 15.4886 5.73732 16.3067 6.70227C17.1248 7.66722 17.5705 8.87283 17.5687 10.1158V14.0782C17.5692 15.3466 18.0307 16.5753 18.8741 17.5532C18.9647 17.6314 19.0302 17.7327 19.0629 17.8453C19.0955 17.9579 19.094 18.077 19.0584 18.1888ZM11.9786 20.1736C11.6944 20.1754 11.4145 20.1075 11.1653 19.9765C10.9162 19.8454 10.7062 19.6555 10.5553 19.4249H13.402C13.2527 19.6506 13.0472 19.8372 12.8039 19.9679C12.5605 20.0986 12.2871 20.1693 12.0081 20.1736H11.9786ZM11.16 3.67436C11.1492 3.56563 11.1622 3.45597 11.1983 3.35234C11.2343 3.24871 11.2926 3.15337 11.3693 3.07256C11.446 2.99175 11.5395 2.92723 11.6438 2.88305C11.7481 2.83887 11.8609 2.81606 11.9749 2.81606C12.089 2.81606 12.2018 2.83887 12.3061 2.88305C12.4104 2.92723 12.5039 2.99175 12.5806 3.07256C12.6573 3.15337 12.7156 3.24871 12.7516 3.35234C12.7877 3.45597 12.8007 3.56563 12.7899 3.67436C12.7907 3.75863 12.7756 3.84234 12.7456 3.92155C12.5008 3.89424 12.2546 3.88013 12.0081 3.87922C11.7617 3.88056 11.5155 3.89466 11.2707 3.92155C11.2218 3.84457 11.1845 3.76136 11.16 3.67436Z" fill="#101014"/>
</svg>
