<svg width="17" height="21" viewBox="0 0 17 21" fill="none" xmlns="http://www.w3.org/2000/svg">
<rect x="0.5" y="7.41821" width="16" height="13.0818" rx="1.5" stroke="black"/>
<path d="M10.9306 13.0131C10.9306 14.3561 9.84229 15.4446 8.50021 15.4446C7.15812 15.4446 6.06982 14.3561 6.06982 13.0131C6.06982 11.67 7.15812 10.5816 8.50021 10.5816C9.84229 10.5816 10.9306 11.67 10.9306 13.0131Z" stroke="black"/>
<path d="M8.10254 18.1394C8.10254 18.4156 8.3264 18.6394 8.60254 18.6394C8.87868 18.6394 9.10254 18.4156 9.10254 18.1394L8.10254 18.1394ZM8.10254 15.5371L8.10254 18.1394L9.10254 18.1394L9.10254 15.5371L8.10254 15.5371Z" fill="#101014"/>
<path fill-rule="evenodd" clip-rule="evenodd" d="M13.5717 7.80858V5.16493C13.5717 2.32073 11.3065 0 8.50927 0C5.71207 0 3.42969 2.32073 3.42969 5.16493V7.80858L4.55007 7.80856L4.55007 5.16492C4.55007 3.03613 6.39838 1.15218 8.50916 1.15218C10.6199 1.15218 12.444 3.01868 12.444 5.16492L12.444 7.80856L13.5717 7.80858Z" fill="black"/>
</svg>
