<svg width="24" height="24" viewBox="0 0 24 24" fill="none" xmlns="http://www.w3.org/2000/svg">
<path d="M4 4.84444C4 4.57237 4 4.35097 4.19377 3.97068C4.36421 3.63617 4.63617 3.36421 4.97068 3.19377C5.35097 3 5.8488 3 6.84444 3H10.242C10.8802 3 11.1993 3 11.481 3.09716C11.7301 3.18309 11.957 3.32332 12.1452 3.5077C12.3581 3.7162 12.5008 4.0016 12.7862 4.57237L13.7778 6.55556H17.5111C19.0046 6.55556 19.7513 6.55556 20.3218 6.8462C20.8235 7.10187 21.2315 7.50982 21.4871 8.01158C21.7778 8.58201 21.7778 9.32875 21.7778 10.8222V14.7333C21.7778 16.2268 21.7778 16.9735 21.4871 17.544C21.2315 18.0457 20.8235 18.4537 20.3218 18.7094C19.7513 19 19.0046 19 17.5111 19H8.26667C6.77319 19 6.02646 19 5.45603 18.7094C4.95426 18.4537 4.54631 18.0457 4.29065 17.544C4 16.9735 4 16.2268 4 14.7333" stroke="#101014" stroke-linecap="round" stroke-linejoin="round"/>
<path d="M2 8.55556H15.5111C17.0046 8.55556 17.7513 8.55556 18.3218 8.8462C18.8235 9.10187 19.2315 9.50982 19.4871 10.0116C19.7778 10.582 19.7778 11.3287 19.7778 12.8222V16.7333C19.7778 18.2268 19.7778 18.9735 19.4871 19.544C19.2315 20.0457 18.8235 20.4537 18.3218 20.7094C17.7513 21 17.0046 21 15.5111 21H6.26667C4.77319 21 4.02646 21 3.45603 20.7094C2.95426 20.4537 2.54631 20.0457 2.29065 19.544C2 18.9735 2 18.2268 2 16.7333V8.55556Z" fill="white"/>
<path d="M11.7778 8.55556L10.7862 6.57237C10.5008 6.0016 10.3581 5.7162 10.1452 5.5077C9.95696 5.32332 9.73007 5.18309 9.48096 5.09716C9.19926 5 8.88018 5 8.24204 5H4.84444C3.8488 5 3.35097 5 2.97068 5.19377C2.63617 5.36421 2.36421 5.63617 2.19377 5.97068C2 6.35097 2 6.8488 2 7.84444V8.55556M2 8.55556H15.5111C17.0046 8.55556 17.7513 8.55556 18.3218 8.8462C18.8235 9.10187 19.2315 9.50982 19.4871 10.0116C19.7778 10.582 19.7778 11.3287 19.7778 12.8222V16.7333C19.7778 18.2268 19.7778 18.9735 19.4871 19.544C19.2315 20.0457 18.8235 20.4537 18.3218 20.7094C17.7513 21 17.0046 21 15.5111 21H6.26667C4.77319 21 4.02646 21 3.45603 20.7094C2.95426 20.4537 2.54631 20.0457 2.29065 19.544C2 18.9735 2 18.2268 2 16.7333V8.55556ZM10.8889 17.4444V12.1111M8.22222 14.7778H13.5556" stroke="#101014" stroke-linecap="round" stroke-linejoin="round"/>
</svg>
